<?xml version="1.0" encoding="utf-8" standalone="no"?>
<!DOCTYPE svg PUBLIC "-//W3C//DTD SVG 1.1//EN"
  "http://www.w3.org/Graphics/SVG/1.1/DTD/svg11.dtd">
<svg xmlns:xlink="http://www.w3.org/1999/xlink" width="432pt" height="288pt" viewBox="0 0 432 288" xmlns="http://www.w3.org/2000/svg" version="1.1">
 <metadata>
  <rdf:RDF xmlns:dc="http://purl.org/dc/elements/1.1/" xmlns:cc="http://creativecommons.org/ns#" xmlns:rdf="http://www.w3.org/1999/02/22-rdf-syntax-ns#">
   <cc:Work>
    <dc:type rdf:resource="http://purl.org/dc/dcmitype/StillImage"/>
    <dc:date>2022-02-22T11:49:34.801635</dc:date>
    <dc:format>image/svg+xml</dc:format>
    <dc:creator>
     <cc:Agent>
      <dc:title>Matplotlib v3.5.0, https://matplotlib.org/</dc:title>
     </cc:Agent>
    </dc:creator>
   </cc:Work>
  </rdf:RDF>
 </metadata>
 <defs>
  <style type="text/css">*{stroke-linejoin: round; stroke-linecap: butt}</style>
 </defs>
 <g id="figure_1">
  <g id="patch_1">
   <path d="M 0 288 
L 432 288 
L 432 0 
L 0 0 
z
" style="fill: #ffffff"/>
  </g>
  <g id="axes_1">
   <g id="patch_2">
    <path d="M 54 252 
L 388.8 252 
L 388.8 34.56 
L 54 34.56 
z
" style="fill: #ffffff"/>
   </g>
   <g id="matplotlib.axis_1">
    <g id="xtick_1">
     <g id="line2d_1">
      <path d="M 69.218182 252 
L 69.218182 34.56 
" clip-path="url(#p2b759f226e)" style="fill: none; stroke: #cccccc; stroke-width: 0.8; stroke-linecap: round"/>
     </g>
     <g id="text_1">
      <!-- 0 -->
      <g style="fill: #262626" transform="translate(66.437713 266.157812)scale(0.1 -0.1)">
       <defs>
        <path id="ArialMT-30" d="M 266 2259 
Q 266 3072 433 3567 
Q 600 4063 929 4331 
Q 1259 4600 1759 4600 
Q 2128 4600 2406 4451 
Q 2684 4303 2865 4023 
Q 3047 3744 3150 3342 
Q 3253 2941 3253 2259 
Q 3253 1453 3087 958 
Q 2922 463 2592 192 
Q 2263 -78 1759 -78 
Q 1097 -78 719 397 
Q 266 969 266 2259 
z
M 844 2259 
Q 844 1131 1108 757 
Q 1372 384 1759 384 
Q 2147 384 2411 759 
Q 2675 1134 2675 2259 
Q 2675 3391 2411 3762 
Q 2147 4134 1753 4134 
Q 1366 4134 1134 3806 
Q 844 3388 844 2259 
z
" transform="scale(0.015625)"/>
       </defs>
       <use xlink:href="#ArialMT-30"/>
      </g>
     </g>
    </g>
    <g id="xtick_2">
     <g id="line2d_2">
      <path d="M 133.294737 252 
L 133.294737 34.56 
" clip-path="url(#p2b759f226e)" style="fill: none; stroke: #cccccc; stroke-width: 0.8; stroke-linecap: round"/>
     </g>
     <g id="text_2">
      <!-- 100 -->
      <g style="fill: #262626" transform="translate(124.953331 266.157812)scale(0.1 -0.1)">
       <defs>
        <path id="ArialMT-31" d="M 2384 0 
L 1822 0 
L 1822 3584 
Q 1619 3391 1289 3197 
Q 959 3003 697 2906 
L 697 3450 
Q 1169 3672 1522 3987 
Q 1875 4303 2022 4600 
L 2384 4600 
L 2384 0 
z
" transform="scale(0.015625)"/>
       </defs>
       <use xlink:href="#ArialMT-31"/>
       <use xlink:href="#ArialMT-30" x="55.615234"/>
       <use xlink:href="#ArialMT-30" x="111.230469"/>
      </g>
     </g>
    </g>
    <g id="xtick_3">
     <g id="line2d_3">
      <path d="M 197.371292 252 
L 197.371292 34.56 
" clip-path="url(#p2b759f226e)" style="fill: none; stroke: #cccccc; stroke-width: 0.8; stroke-linecap: round"/>
     </g>
     <g id="text_3">
      <!-- 200 -->
      <g style="fill: #262626" transform="translate(189.029886 266.157812)scale(0.1 -0.1)">
       <defs>
        <path id="ArialMT-32" d="M 3222 541 
L 3222 0 
L 194 0 
Q 188 203 259 391 
Q 375 700 629 1000 
Q 884 1300 1366 1694 
Q 2113 2306 2375 2664 
Q 2638 3022 2638 3341 
Q 2638 3675 2398 3904 
Q 2159 4134 1775 4134 
Q 1369 4134 1125 3890 
Q 881 3647 878 3216 
L 300 3275 
Q 359 3922 746 4261 
Q 1134 4600 1788 4600 
Q 2447 4600 2831 4234 
Q 3216 3869 3216 3328 
Q 3216 3053 3103 2787 
Q 2991 2522 2730 2228 
Q 2469 1934 1863 1422 
Q 1356 997 1212 845 
Q 1069 694 975 541 
L 3222 541 
z
" transform="scale(0.015625)"/>
       </defs>
       <use xlink:href="#ArialMT-32"/>
       <use xlink:href="#ArialMT-30" x="55.615234"/>
       <use xlink:href="#ArialMT-30" x="111.230469"/>
      </g>
     </g>
    </g>
    <g id="xtick_4">
     <g id="line2d_4">
      <path d="M 261.447847 252 
L 261.447847 34.56 
" clip-path="url(#p2b759f226e)" style="fill: none; stroke: #cccccc; stroke-width: 0.8; stroke-linecap: round"/>
     </g>
     <g id="text_4">
      <!-- 300 -->
      <g style="fill: #262626" transform="translate(253.106441 266.157812)scale(0.1 -0.1)">
       <defs>
        <path id="ArialMT-33" d="M 269 1209 
L 831 1284 
Q 928 806 1161 595 
Q 1394 384 1728 384 
Q 2125 384 2398 659 
Q 2672 934 2672 1341 
Q 2672 1728 2419 1979 
Q 2166 2231 1775 2231 
Q 1616 2231 1378 2169 
L 1441 2663 
Q 1497 2656 1531 2656 
Q 1891 2656 2178 2843 
Q 2466 3031 2466 3422 
Q 2466 3731 2256 3934 
Q 2047 4138 1716 4138 
Q 1388 4138 1169 3931 
Q 950 3725 888 3313 
L 325 3413 
Q 428 3978 793 4289 
Q 1159 4600 1703 4600 
Q 2078 4600 2393 4439 
Q 2709 4278 2876 4000 
Q 3044 3722 3044 3409 
Q 3044 3113 2884 2869 
Q 2725 2625 2413 2481 
Q 2819 2388 3044 2092 
Q 3269 1797 3269 1353 
Q 3269 753 2831 336 
Q 2394 -81 1725 -81 
Q 1122 -81 723 278 
Q 325 638 269 1209 
z
" transform="scale(0.015625)"/>
       </defs>
       <use xlink:href="#ArialMT-33"/>
       <use xlink:href="#ArialMT-30" x="55.615234"/>
       <use xlink:href="#ArialMT-30" x="111.230469"/>
      </g>
     </g>
    </g>
    <g id="xtick_5">
     <g id="line2d_5">
      <path d="M 325.524402 252 
L 325.524402 34.56 
" clip-path="url(#p2b759f226e)" style="fill: none; stroke: #cccccc; stroke-width: 0.8; stroke-linecap: round"/>
     </g>
     <g id="text_5">
      <!-- 400 -->
      <g style="fill: #262626" transform="translate(317.182996 266.157812)scale(0.1 -0.1)">
       <defs>
        <path id="ArialMT-34" d="M 2069 0 
L 2069 1097 
L 81 1097 
L 81 1613 
L 2172 4581 
L 2631 4581 
L 2631 1613 
L 3250 1613 
L 3250 1097 
L 2631 1097 
L 2631 0 
L 2069 0 
z
M 2069 1613 
L 2069 3678 
L 634 1613 
L 2069 1613 
z
" transform="scale(0.015625)"/>
       </defs>
       <use xlink:href="#ArialMT-34"/>
       <use xlink:href="#ArialMT-30" x="55.615234"/>
       <use xlink:href="#ArialMT-30" x="111.230469"/>
      </g>
     </g>
    </g>
   </g>
   <g id="matplotlib.axis_2">
    <g id="ytick_1">
     <g id="line2d_6">
      <path d="M 54 225.802664 
L 388.8 225.802664 
" clip-path="url(#p2b759f226e)" style="fill: none; stroke: #cccccc; stroke-width: 0.8; stroke-linecap: round"/>
     </g>
     <g id="text_6">
      <!-- 0 -->
      <g style="fill: #262626" transform="translate(41.439062 229.381571)scale(0.1 -0.1)">
       <use xlink:href="#ArialMT-30"/>
      </g>
     </g>
    </g>
    <g id="ytick_2">
     <g id="line2d_7">
      <path d="M 54 180.867325 
L 388.8 180.867325 
" clip-path="url(#p2b759f226e)" style="fill: none; stroke: #cccccc; stroke-width: 0.8; stroke-linecap: round"/>
     </g>
     <g id="text_7">
      <!-- 500 -->
      <g style="fill: #262626" transform="translate(30.317187 184.446232)scale(0.1 -0.1)">
       <defs>
        <path id="ArialMT-35" d="M 266 1200 
L 856 1250 
Q 922 819 1161 601 
Q 1400 384 1738 384 
Q 2144 384 2425 690 
Q 2706 997 2706 1503 
Q 2706 1984 2436 2262 
Q 2166 2541 1728 2541 
Q 1456 2541 1237 2417 
Q 1019 2294 894 2097 
L 366 2166 
L 809 4519 
L 3088 4519 
L 3088 3981 
L 1259 3981 
L 1013 2750 
Q 1425 3038 1878 3038 
Q 2478 3038 2890 2622 
Q 3303 2206 3303 1553 
Q 3303 931 2941 478 
Q 2500 -78 1738 -78 
Q 1113 -78 717 272 
Q 322 622 266 1200 
z
" transform="scale(0.015625)"/>
       </defs>
       <use xlink:href="#ArialMT-35"/>
       <use xlink:href="#ArialMT-30" x="55.615234"/>
       <use xlink:href="#ArialMT-30" x="111.230469"/>
      </g>
     </g>
    </g>
    <g id="ytick_3">
     <g id="line2d_8">
      <path d="M 54 135.931986 
L 388.8 135.931986 
" clip-path="url(#p2b759f226e)" style="fill: none; stroke: #cccccc; stroke-width: 0.8; stroke-linecap: round"/>
     </g>
     <g id="text_8">
      <!-- 1000 -->
      <g style="fill: #262626" transform="translate(24.75625 139.510893)scale(0.1 -0.1)">
       <use xlink:href="#ArialMT-31"/>
       <use xlink:href="#ArialMT-30" x="55.615234"/>
       <use xlink:href="#ArialMT-30" x="111.230469"/>
       <use xlink:href="#ArialMT-30" x="166.845703"/>
      </g>
     </g>
    </g>
    <g id="ytick_4">
     <g id="line2d_9">
      <path d="M 54 90.996648 
L 388.8 90.996648 
" clip-path="url(#p2b759f226e)" style="fill: none; stroke: #cccccc; stroke-width: 0.8; stroke-linecap: round"/>
     </g>
     <g id="text_9">
      <!-- 1500 -->
      <g style="fill: #262626" transform="translate(24.75625 94.575554)scale(0.1 -0.1)">
       <use xlink:href="#ArialMT-31"/>
       <use xlink:href="#ArialMT-35" x="55.615234"/>
       <use xlink:href="#ArialMT-30" x="111.230469"/>
       <use xlink:href="#ArialMT-30" x="166.845703"/>
      </g>
     </g>
    </g>
    <g id="ytick_5">
     <g id="line2d_10">
      <path d="M 54 46.061309 
L 388.8 46.061309 
" clip-path="url(#p2b759f226e)" style="fill: none; stroke: #cccccc; stroke-width: 0.8; stroke-linecap: round"/>
     </g>
     <g id="text_10">
      <!-- 2000 -->
      <g style="fill: #262626" transform="translate(24.75625 49.640215)scale(0.1 -0.1)">
       <use xlink:href="#ArialMT-32"/>
       <use xlink:href="#ArialMT-30" x="55.615234"/>
       <use xlink:href="#ArialMT-30" x="111.230469"/>
       <use xlink:href="#ArialMT-30" x="166.845703"/>
      </g>
     </g>
    </g>
   </g>
   <g id="line2d_11">
    <path d="M 69.218182 55.048376 
L 144.828517 44.443636 
L 145.469282 55.048376 
L 221.079617 44.443636 
L 221.720383 55.048376 
L 297.330718 44.443636 
L 297.971483 55.048376 
L 373.581818 44.443636 
L 373.581818 44.443636 
" clip-path="url(#p2b759f226e)" style="fill: none; stroke: #1f77b4; stroke-width: 1.5; stroke-linecap: round"/>
   </g>
   <g id="line2d_12">
    <path d="M 69.218182 47.517214 
L 69.858947 73.471865 
L 70.499713 77.003783 
L 71.140478 87.213092 
L 71.781244 82.77348 
L 72.42201 91.095505 
L 73.062775 83.806993 
L 73.703541 93.845548 
L 74.344306 100.271301 
L 74.985072 104.576107 
L 75.625837 100.226366 
L 76.266603 120.114747 
L 76.907368 127.475156 
L 77.548134 118.550997 
L 78.1889 133.757116 
L 78.829665 142.744184 
L 79.470431 125.911406 
L 80.111196 130.000522 
L 80.751962 84.391153 
L 81.392727 142.402675 
L 82.033493 137.082331 
L 82.674258 153.798277 
L 83.315024 159.118621 
L 83.955789 153.303988 
L 84.596555 164.403017 
L 85.237321 168.19556 
L 85.878086 160.790216 
L 86.518852 172.689094 
L 87.159617 167.6114 
L 87.800383 169.588555 
L 88.441148 175.15155 
L 89.081914 178.476765 
L 89.722679 184.291398 
L 90.363445 183.329782 
L 91.004211 180.175321 
L 91.644976 186.178682 
L 92.285742 186.27754 
L 92.926507 188.173812 
L 93.567273 191.310298 
L 94.208038 197.196828 
L 94.848804 199.776116 
L 95.489569 200.647862 
L 96.130335 203.928141 
L 96.7711 202.759823 
L 97.411866 204.862796 
L 98.052632 207.558917 
L 99.334163 211.351459 
L 99.974928 211.414369 
L 101.256459 213.274692 
L 101.897225 213.499369 
L 102.53799 213.121912 
L 103.819522 215.170963 
L 104.460287 215.611329 
L 105.101053 215.898916 
L 105.741818 215.755123 
L 106.382584 215.76411 
L 107.023349 216.195489 
L 107.664115 215.997773 
L 108.30488 216.662816 
L 108.945646 216.887493 
L 109.586411 216.680791 
L 110.867943 217.184066 
L 111.508708 217.139131 
L 112.149474 217.768226 
L 112.790239 217.750252 
L 113.431005 217.894045 
L 114.712536 218.406308 
L 115.994067 218.702881 
L 116.634833 219.215144 
L 117.275598 219.520704 
L 118.557129 219.727407 
L 119.197895 219.700445 
L 119.83866 220.032967 
L 120.479426 220.059928 
L 121.760957 220.572191 
L 122.401722 220.760919 
L 123.042488 221.111415 
L 126.246316 221.327105 
L 126.887081 221.596717 
L 127.527847 221.542794 
L 128.168612 221.89329 
L 128.809378 221.794432 
L 130.731675 222.387579 
L 132.013206 222.738074 
L 132.653971 222.729087 
L 133.294737 222.890854 
L 133.935502 222.800984 
L 134.576268 222.980725 
L 135.217033 222.944777 
L 136.498565 223.115531 
L 137.780096 223.160466 
L 138.420861 223.169453 
L 139.702392 223.421091 
L 141.624689 223.510962 
L 142.265455 223.645768 
L 143.546986 223.528936 
L 144.828517 223.645768 
L 145.469282 183.913941 
L 146.110048 187.373962 
L 146.750813 189.55782 
L 148.032344 187.607626 
L 148.67311 190.186915 
L 149.313876 191.885471 
L 150.595407 193.97047 
L 151.236172 196.127367 
L 151.876938 194.49172 
L 152.517703 197.942754 
L 153.158469 199.964844 
L 153.799234 197.25075 
L 154.44 199.596375 
L 155.080766 202.382366 
L 155.721531 200.423185 
L 156.362297 199.677258 
L 157.003062 185.549588 
L 157.643828 198.841461 
L 158.284593 199.27284 
L 158.925359 200.513056 
L 159.566124 204.26965 
L 160.20689 204.233702 
L 160.847656 205.878335 
L 161.488421 206.795016 
L 162.129187 206.588313 
L 162.769952 207.082602 
L 163.410718 206.651223 
L 164.051483 207.109563 
L 164.692249 208.74521 
L 165.333014 209.446201 
L 165.97378 210.893119 
L 166.614545 211.306524 
L 167.255311 210.965015 
L 167.896077 211.207666 
L 168.536842 211.908658 
L 169.177608 212.960144 
L 170.459139 215.683226 
L 171.74067 216.474088 
L 172.381435 217.166092 
L 173.022201 216.536997 
L 174.303732 217.390769 
L 174.944498 218.109734 
L 175.585263 219.215144 
L 176.866794 219.673484 
L 177.50756 220.257644 
L 178.789091 220.293592 
L 179.429856 220.760919 
L 180.070622 221.084454 
L 181.352153 221.461911 
L 181.992919 221.300143 
L 182.633684 221.452924 
L 183.27445 221.363053 
L 183.915215 221.399001 
L 184.555981 221.686587 
L 187.759809 221.821393 
L 188.400574 221.947212 
L 189.04134 221.803419 
L 189.682105 221.848355 
L 190.322871 222.019109 
L 192.245167 222.108979 
L 192.885933 222.459475 
L 194.167464 222.738074 
L 198.012057 223.259324 
L 199.293589 223.528936 
L 202.497416 223.636781 
L 203.778947 223.870445 
L 204.419713 223.97829 
L 205.060478 223.91538 
L 206.34201 224.059173 
L 208.905072 224.28385 
L 210.186603 224.427643 
L 214.031196 224.562449 
L 215.312727 224.679281 
L 215.953493 224.769152 
L 216.594258 224.715229 
L 217.875789 224.74219 
L 219.157321 224.751177 
L 220.438852 224.760164 
L 221.079617 224.769152 
L 221.720383 198.994241 
L 223.001914 203.110318 
L 223.642679 201.699349 
L 224.283445 198.374133 
L 224.924211 200.656849 
L 226.205742 201.915038 
L 227.487273 205.087473 
L 228.128038 204.602171 
L 228.768804 205.8334 
L 229.409569 207.630813 
L 230.050335 206.498443 
L 230.6911 207.18146 
L 231.331866 208.125102 
L 231.972632 207.370188 
L 232.613397 206.129973 
L 233.254163 192.092173 
L 233.894928 204.557236 
L 234.535694 205.141396 
L 235.817225 209.032796 
L 236.45799 208.889003 
L 237.098756 209.643916 
L 237.739522 209.536072 
L 238.380287 210.39883 
L 239.021053 210.749326 
L 239.661818 210.183141 
L 240.302584 210.974003 
L 240.943349 212.070425 
L 241.584115 212.295101 
L 242.22488 213.023054 
L 242.865646 213.400511 
L 243.506411 213.085963 
L 244.147177 212.915209 
L 244.787943 213.130899 
L 246.069474 215.575381 
L 247.351005 216.860532 
L 247.99177 217.291911 
L 248.632536 218.09176 
L 249.273301 217.660381 
L 249.914067 217.741265 
L 250.554833 218.00189 
L 251.195598 218.738829 
L 251.836364 219.700445 
L 253.117895 220.086889 
L 253.75866 220.581178 
L 254.399426 220.733958 
L 255.040191 220.69801 
L 255.680957 221.030531 
L 256.321722 221.506846 
L 257.603254 221.641652 
L 258.244019 221.542794 
L 258.884785 221.794432 
L 259.52555 221.686587 
L 260.807081 222.037083 
L 262.729378 222.064044 
L 263.370144 222.162902 
L 265.29244 222.064044 
L 268.496268 222.180876 
L 270.418565 222.729087 
L 271.05933 222.693139 
L 272.981627 223.034647 
L 274.903923 223.349195 
L 275.544689 223.259324 
L 280.030048 223.501975 
L 280.670813 223.60982 
L 281.311579 223.528936 
L 283.874641 223.780574 
L 286.437703 224.086134 
L 287.719234 224.104109 
L 294.767656 224.544475 
L 296.689952 224.409669 
L 297.330718 224.463591 
L 297.971483 182.23336 
L 299.253014 187.922174 
L 299.89378 186.789803 
L 300.534545 183.437627 
L 301.175311 186.322476 
L 301.816077 185.792239 
L 302.456842 186.466269 
L 303.738373 193.125686 
L 304.379139 192.379759 
L 305.019904 192.909996 
L 305.66067 194.599565 
L 306.301435 193.422259 
L 306.942201 195.201699 
L 307.582967 196.064457 
L 308.864498 191.624846 
L 309.505263 155.937199 
L 310.146029 186.394372 
L 310.786794 189.593768 
L 311.42756 196.459888 
L 312.068325 197.079996 
L 312.709091 196.522797 
L 313.349856 197.628207 
L 313.990622 197.583271 
L 314.631388 198.167431 
L 315.272153 199.785103 
L 315.912919 198.14047 
L 316.553684 199.021202 
L 317.19445 200.83659 
L 317.835215 202.121741 
L 318.475981 204.458378 
L 319.116746 205.725555 
L 319.757512 205.671633 
L 320.398278 205.824413 
L 321.039043 205.09646 
L 321.679809 206.120986 
L 322.320574 208.520533 
L 322.96134 209.643916 
L 323.602105 210.380856 
L 324.242871 210.61452 
L 324.883636 211.89967 
L 325.524402 211.063873 
L 326.805933 212.11536 
L 327.446699 213.418485 
L 328.087464 214.407062 
L 329.368995 215.755123 
L 330.009761 216.042709 
L 330.650526 216.015748 
L 331.291292 215.521459 
L 331.932057 216.195489 
L 332.572823 217.166092 
L 333.213589 217.058247 
L 333.854354 217.067234 
L 334.49512 216.797622 
L 335.135885 217.579497 
L 335.776651 217.462665 
L 336.417416 217.516588 
L 337.058182 217.885058 
L 337.698947 217.929993 
L 339.621244 217.237989 
L 340.26201 216.635855 
L 340.902775 216.626868 
L 342.184306 215.602342 
L 342.825072 215.889929 
L 344.747368 215.827019 
L 346.0289 216.797622 
L 346.669665 217.20204 
L 347.310431 216.833571 
L 349.232727 217.004325 
L 349.873493 217.714303 
L 351.155024 218.514152 
L 352.436555 218.568075 
L 353.077321 218.055812 
L 353.718086 218.298463 
L 354.358852 218.010877 
L 354.999617 218.082773 
L 356.281148 217.831135 
L 356.921914 218.289476 
L 357.562679 218.09176 
L 358.203445 218.118721 
L 359.484976 218.837687 
L 360.766507 219.556652 
L 366.533397 220.383462 
L 367.814928 221.138376 
L 368.455694 221.363053 
L 369.737225 221.560768 
L 370.37799 221.776458 
L 371.018756 221.713549 
L 372.300287 221.201286 
L 372.941053 221.174324 
L 373.581818 221.381027 
L 373.581818 221.381027 
" clip-path="url(#p2b759f226e)" style="fill: none; stroke: #ff7f0e; stroke-width: 1.5; stroke-linecap: round"/>
   </g>
   <g id="line2d_13">
    <path d="M 69.218182 64.855439 
L 69.858947 90.81009 
L 70.499713 94.342008 
L 71.140478 104.551317 
L 71.781244 100.111705 
L 72.42201 108.43373 
L 73.062775 101.145218 
L 73.703541 111.183773 
L 74.344306 117.609526 
L 74.985072 121.914332 
L 75.625837 117.564591 
L 76.266603 137.452972 
L 76.907368 144.813381 
L 77.548134 135.889222 
L 78.1889 151.095341 
L 78.829665 160.082409 
L 79.470431 143.249631 
L 80.111196 147.338747 
L 80.751962 101.729378 
L 81.392727 159.7409 
L 82.033493 154.420556 
L 82.674258 171.136502 
L 83.315024 176.456846 
L 83.955789 170.642214 
L 84.596555 181.741242 
L 85.237321 185.533785 
L 85.878086 178.128441 
L 86.518852 190.027319 
L 87.159617 184.949625 
L 87.800383 186.92678 
L 88.441148 192.489775 
L 89.081914 195.81499 
L 89.722679 201.629623 
L 90.363445 200.668007 
L 91.004211 197.513546 
L 91.644976 203.516907 
L 92.285742 203.615765 
L 92.926507 205.512037 
L 93.567273 208.648523 
L 94.208038 214.535053 
L 94.848804 217.114341 
L 95.489569 217.986087 
L 96.130335 221.266366 
L 96.7711 220.098048 
L 97.411866 222.201021 
L 98.052632 224.897142 
L 99.334163 228.689684 
L 99.974928 228.752594 
L 101.256459 230.612917 
L 101.897225 230.837594 
L 102.53799 230.460137 
L 103.819522 232.509188 
L 104.460287 232.949554 
L 105.101053 233.237141 
L 105.741818 233.093348 
L 106.382584 233.102335 
L 107.023349 233.533714 
L 107.664115 233.335998 
L 108.30488 234.001041 
L 108.945646 234.225718 
L 109.586411 234.019016 
L 110.867943 234.522291 
L 111.508708 234.477356 
L 112.149474 235.106451 
L 112.790239 235.088477 
L 113.431005 235.23227 
L 114.712536 235.744533 
L 115.994067 236.041106 
L 116.634833 236.553369 
L 117.275598 236.858929 
L 118.557129 237.065632 
L 119.197895 237.03867 
L 119.83866 237.371192 
L 120.479426 237.398153 
L 121.760957 237.910416 
L 122.401722 238.099144 
L 123.042488 238.44964 
L 126.246316 238.66533 
L 126.887081 238.934942 
L 127.527847 238.881019 
L 128.168612 239.231515 
L 128.809378 239.132657 
L 130.731675 239.725804 
L 132.013206 240.076299 
L 132.653971 240.067312 
L 133.294737 240.229079 
L 133.935502 240.139209 
L 134.576268 240.31895 
L 135.217033 240.283002 
L 136.498565 240.453756 
L 137.780096 240.498691 
L 138.420861 240.507679 
L 139.702392 240.759316 
L 141.624689 240.849187 
L 142.265455 240.983993 
L 143.546986 240.867161 
L 144.828517 240.983993 
L 145.469282 201.252166 
L 146.110048 204.712187 
L 146.750813 206.896045 
L 148.032344 204.945851 
L 148.67311 207.52514 
L 149.313876 209.223696 
L 150.595407 211.308695 
L 151.236172 213.465592 
L 151.876938 211.829945 
L 152.517703 215.280979 
L 153.158469 217.303069 
L 153.799234 214.588975 
L 154.44 216.9346 
L 155.080766 219.720591 
L 155.721531 217.76141 
L 156.362297 217.015483 
L 157.003062 202.887813 
L 157.643828 216.179686 
L 158.284593 216.611065 
L 158.925359 217.851281 
L 159.566124 221.607875 
L 160.20689 221.571927 
L 160.847656 223.21656 
L 161.488421 224.133241 
L 162.129187 223.926538 
L 162.769952 224.420827 
L 163.410718 223.989448 
L 164.051483 224.447788 
L 164.692249 226.083435 
L 165.333014 226.784426 
L 165.97378 228.231344 
L 166.614545 228.644749 
L 167.255311 228.30324 
L 167.896077 228.545891 
L 168.536842 229.246883 
L 169.177608 230.298369 
L 170.459139 233.021451 
L 171.74067 233.812313 
L 172.381435 234.504317 
L 173.022201 233.875222 
L 174.303732 234.728994 
L 174.944498 235.447959 
L 175.585263 236.553369 
L 176.866794 237.011709 
L 177.50756 237.595869 
L 178.789091 237.631817 
L 179.429856 238.099144 
L 180.070622 238.422679 
L 181.352153 238.800136 
L 181.992919 238.638368 
L 182.633684 238.791149 
L 183.27445 238.701278 
L 183.915215 238.737226 
L 184.555981 239.024812 
L 187.759809 239.159618 
L 188.400574 239.285437 
L 189.04134 239.141644 
L 189.682105 239.18658 
L 190.322871 239.357334 
L 192.245167 239.447205 
L 192.885933 239.7977 
L 194.167464 240.076299 
L 198.012057 240.597549 
L 199.293589 240.867161 
L 202.497416 240.975006 
L 203.778947 241.20867 
L 204.419713 241.316515 
L 205.060478 241.253605 
L 206.34201 241.397398 
L 208.905072 241.622075 
L 210.186603 241.765868 
L 214.031196 241.900674 
L 215.312727 242.017506 
L 215.953493 242.107377 
L 216.594258 242.053454 
L 217.875789 242.080415 
L 219.157321 242.089402 
L 220.438852 242.09839 
L 221.079617 242.107377 
L 221.720383 216.332466 
L 223.001914 220.448543 
L 223.642679 219.037574 
L 224.283445 215.712358 
L 224.924211 217.995074 
L 226.205742 219.253263 
L 227.487273 222.425698 
L 228.128038 221.940396 
L 228.768804 223.171625 
L 229.409569 224.969038 
L 230.050335 223.836668 
L 230.6911 224.519685 
L 231.331866 225.463327 
L 231.972632 224.708413 
L 232.613397 223.468198 
L 233.254163 209.430398 
L 233.894928 221.895461 
L 234.535694 222.479621 
L 235.817225 226.371021 
L 236.45799 226.227228 
L 237.098756 226.982141 
L 237.739522 226.874297 
L 238.380287 227.737055 
L 239.021053 228.087551 
L 239.661818 227.521366 
L 240.302584 228.312228 
L 240.943349 229.40865 
L 241.584115 229.633326 
L 242.22488 230.361279 
L 242.865646 230.738736 
L 243.506411 230.424188 
L 244.147177 230.253434 
L 244.787943 230.469124 
L 246.069474 232.913606 
L 247.351005 234.198757 
L 247.99177 234.630136 
L 248.632536 235.429985 
L 249.273301 234.998606 
L 249.914067 235.07949 
L 250.554833 235.340115 
L 251.195598 236.077054 
L 251.836364 237.03867 
L 253.117895 237.425114 
L 253.75866 237.919403 
L 254.399426 238.072183 
L 255.040191 238.036235 
L 255.680957 238.368756 
L 256.321722 238.845071 
L 257.603254 238.979877 
L 258.244019 238.881019 
L 258.884785 239.132657 
L 259.52555 239.024812 
L 260.807081 239.375308 
L 262.729378 239.402269 
L 263.370144 239.501127 
L 265.29244 239.402269 
L 268.496268 239.519101 
L 270.418565 240.067312 
L 271.05933 240.031364 
L 272.981627 240.372872 
L 274.903923 240.68742 
L 275.544689 240.597549 
L 280.030048 240.8402 
L 280.670813 240.948045 
L 281.311579 240.867161 
L 283.874641 241.118799 
L 286.437703 241.424359 
L 287.719234 241.442334 
L 294.767656 241.8827 
L 296.689952 241.747894 
L 297.330718 241.801816 
L 297.971483 199.571585 
L 299.253014 205.260399 
L 299.89378 204.128028 
L 300.534545 200.775852 
L 301.175311 203.660701 
L 301.816077 203.130464 
L 302.456842 203.804494 
L 303.738373 210.463911 
L 304.379139 209.717984 
L 305.019904 210.248221 
L 305.66067 211.93779 
L 306.301435 210.760484 
L 306.942201 212.539924 
L 307.582967 213.402682 
L 308.864498 208.963071 
L 309.505263 173.275424 
L 310.146029 203.732597 
L 310.786794 206.931993 
L 311.42756 213.798113 
L 312.068325 214.418221 
L 312.709091 213.861023 
L 313.349856 214.966432 
L 313.990622 214.921497 
L 314.631388 215.505656 
L 315.272153 217.123328 
L 315.912919 215.478695 
L 316.553684 216.359427 
L 317.19445 218.174815 
L 317.835215 219.459966 
L 318.475981 221.796603 
L 319.116746 223.06378 
L 319.757512 223.009858 
L 320.398278 223.162638 
L 321.039043 222.434685 
L 321.679809 223.459211 
L 322.320574 225.858758 
L 322.96134 226.982141 
L 323.602105 227.719081 
L 324.242871 227.952745 
L 324.883636 229.237895 
L 325.524402 228.402098 
L 326.805933 229.453585 
L 327.446699 230.75671 
L 328.087464 231.745287 
L 329.368995 233.093348 
L 330.009761 233.380934 
L 330.650526 233.353973 
L 331.291292 232.859684 
L 331.932057 233.533714 
L 332.572823 234.504317 
L 333.213589 234.396472 
L 333.854354 234.405459 
L 334.49512 234.135847 
L 335.135885 234.917722 
L 335.776651 234.80089 
L 336.417416 234.854813 
L 337.058182 235.223283 
L 337.698947 235.268218 
L 339.621244 234.576214 
L 340.26201 233.97408 
L 340.902775 233.965093 
L 342.184306 232.940567 
L 342.825072 233.228154 
L 344.747368 233.165244 
L 346.0289 234.135847 
L 346.669665 234.540265 
L 347.310431 234.171796 
L 349.232727 234.34255 
L 349.873493 235.052528 
L 351.155024 235.852377 
L 352.436555 235.9063 
L 353.077321 235.394037 
L 353.718086 235.636688 
L 354.358852 235.349102 
L 354.999617 235.420998 
L 356.281148 235.16936 
L 356.921914 235.627701 
L 357.562679 235.429985 
L 358.203445 235.456946 
L 359.484976 236.175912 
L 360.766507 236.894877 
L 366.533397 237.721687 
L 367.814928 238.476601 
L 368.455694 238.701278 
L 369.737225 238.898993 
L 370.37799 239.114683 
L 371.018756 239.051774 
L 372.300287 238.539511 
L 372.941053 238.512549 
L 373.581818 238.719252 
L 373.581818 238.719252 
" clip-path="url(#p2b759f226e)" style="fill: none; stroke: #2ca02c; stroke-width: 1.5; stroke-linecap: round"/>
   </g>
   <g id="patch_3">
    <path d="M 54 252 
L 54 34.56 
" style="fill: none; stroke: #cccccc; stroke-width: 0.8; stroke-linejoin: miter; stroke-linecap: square"/>
   </g>
   <g id="patch_4">
    <path d="M 388.8 252 
L 388.8 34.56 
" style="fill: none; stroke: #cccccc; stroke-width: 0.8; stroke-linejoin: miter; stroke-linecap: square"/>
   </g>
   <g id="patch_5">
    <path d="M 54 252 
L 388.8 252 
" style="fill: none; stroke: #cccccc; stroke-width: 0.8; stroke-linejoin: miter; stroke-linecap: square"/>
   </g>
   <g id="patch_6">
    <path d="M 54 34.56 
L 388.8 34.56 
" style="fill: none; stroke: #cccccc; stroke-width: 0.8; stroke-linejoin: miter; stroke-linecap: square"/>
   </g>
   <g id="legend_1">
    <g id="patch_7">
     <path d="M 172.326562 165.997969 
L 270.473437 165.997969 
Q 272.473437 165.997969 272.473437 163.997969 
L 272.473437 122.562031 
Q 272.473437 120.562031 270.473437 120.562031 
L 172.326562 120.562031 
Q 170.326562 120.562031 170.326562 122.562031 
L 170.326562 163.997969 
Q 170.326562 165.997969 172.326562 165.997969 
z
" style="fill: #ffffff; opacity: 0.8; stroke: #cccccc; stroke-linejoin: miter"/>
    </g>
    <g id="line2d_14">
     <path d="M 174.326562 128.219844 
L 184.326562 128.219844 
L 194.326562 128.219844 
" style="fill: none; stroke: #1f77b4; stroke-width: 1.5; stroke-linecap: round"/>
    </g>
    <g id="text_11">
     <!-- Year -->
     <g style="fill: #262626" transform="translate(202.326562 131.719844)scale(0.1 -0.1)">
      <defs>
       <path id="ArialMT-59" d="M 1784 0 
L 1784 1941 
L 19 4581 
L 756 4581 
L 1659 3200 
Q 1909 2813 2125 2425 
Q 2331 2784 2625 3234 
L 3513 4581 
L 4219 4581 
L 2391 1941 
L 2391 0 
L 1784 0 
z
" transform="scale(0.015625)"/>
       <path id="ArialMT-65" d="M 2694 1069 
L 3275 997 
Q 3138 488 2766 206 
Q 2394 -75 1816 -75 
Q 1088 -75 661 373 
Q 234 822 234 1631 
Q 234 2469 665 2931 
Q 1097 3394 1784 3394 
Q 2450 3394 2872 2941 
Q 3294 2488 3294 1666 
Q 3294 1616 3291 1516 
L 816 1516 
Q 847 969 1125 678 
Q 1403 388 1819 388 
Q 2128 388 2347 550 
Q 2566 713 2694 1069 
z
M 847 1978 
L 2700 1978 
Q 2663 2397 2488 2606 
Q 2219 2931 1791 2931 
Q 1403 2931 1139 2672 
Q 875 2413 847 1978 
z
" transform="scale(0.015625)"/>
       <path id="ArialMT-61" d="M 2588 409 
Q 2275 144 1986 34 
Q 1697 -75 1366 -75 
Q 819 -75 525 192 
Q 231 459 231 875 
Q 231 1119 342 1320 
Q 453 1522 633 1644 
Q 813 1766 1038 1828 
Q 1203 1872 1538 1913 
Q 2219 1994 2541 2106 
Q 2544 2222 2544 2253 
Q 2544 2597 2384 2738 
Q 2169 2928 1744 2928 
Q 1347 2928 1158 2789 
Q 969 2650 878 2297 
L 328 2372 
Q 403 2725 575 2942 
Q 747 3159 1072 3276 
Q 1397 3394 1825 3394 
Q 2250 3394 2515 3294 
Q 2781 3194 2906 3042 
Q 3031 2891 3081 2659 
Q 3109 2516 3109 2141 
L 3109 1391 
Q 3109 606 3145 398 
Q 3181 191 3288 0 
L 2700 0 
Q 2613 175 2588 409 
z
M 2541 1666 
Q 2234 1541 1622 1453 
Q 1275 1403 1131 1340 
Q 988 1278 909 1158 
Q 831 1038 831 891 
Q 831 666 1001 516 
Q 1172 366 1500 366 
Q 1825 366 2078 508 
Q 2331 650 2450 897 
Q 2541 1088 2541 1459 
L 2541 1666 
z
" transform="scale(0.015625)"/>
       <path id="ArialMT-72" d="M 416 0 
L 416 3319 
L 922 3319 
L 922 2816 
Q 1116 3169 1280 3281 
Q 1444 3394 1641 3394 
Q 1925 3394 2219 3213 
L 2025 2691 
Q 1819 2813 1613 2813 
Q 1428 2813 1281 2702 
Q 1134 2591 1072 2394 
Q 978 2094 978 1738 
L 978 0 
L 416 0 
z
" transform="scale(0.015625)"/>
      </defs>
      <use xlink:href="#ArialMT-59"/>
      <use xlink:href="#ArialMT-65" x="57.574219"/>
      <use xlink:href="#ArialMT-61" x="113.189453"/>
      <use xlink:href="#ArialMT-72" x="168.804688"/>
     </g>
    </g>
    <g id="line2d_15">
     <path d="M 174.326562 142.365156 
L 184.326562 142.365156 
L 194.326562 142.365156 
" style="fill: none; stroke: #ff7f0e; stroke-width: 1.5; stroke-linecap: round"/>
    </g>
    <g id="text_12">
     <!-- DeathRate -->
     <g style="fill: #262626" transform="translate(202.326562 145.865156)scale(0.1 -0.1)">
      <defs>
       <path id="ArialMT-44" d="M 494 0 
L 494 4581 
L 2072 4581 
Q 2606 4581 2888 4516 
Q 3281 4425 3559 4188 
Q 3922 3881 4101 3404 
Q 4281 2928 4281 2316 
Q 4281 1794 4159 1391 
Q 4038 988 3847 723 
Q 3656 459 3429 307 
Q 3203 156 2883 78 
Q 2563 0 2147 0 
L 494 0 
z
M 1100 541 
L 2078 541 
Q 2531 541 2789 625 
Q 3047 709 3200 863 
Q 3416 1078 3536 1442 
Q 3656 1806 3656 2325 
Q 3656 3044 3420 3430 
Q 3184 3816 2847 3947 
Q 2603 4041 2063 4041 
L 1100 4041 
L 1100 541 
z
" transform="scale(0.015625)"/>
       <path id="ArialMT-74" d="M 1650 503 
L 1731 6 
Q 1494 -44 1306 -44 
Q 1000 -44 831 53 
Q 663 150 594 308 
Q 525 466 525 972 
L 525 2881 
L 113 2881 
L 113 3319 
L 525 3319 
L 525 4141 
L 1084 4478 
L 1084 3319 
L 1650 3319 
L 1650 2881 
L 1084 2881 
L 1084 941 
Q 1084 700 1114 631 
Q 1144 563 1211 522 
Q 1278 481 1403 481 
Q 1497 481 1650 503 
z
" transform="scale(0.015625)"/>
       <path id="ArialMT-68" d="M 422 0 
L 422 4581 
L 984 4581 
L 984 2938 
Q 1378 3394 1978 3394 
Q 2347 3394 2619 3248 
Q 2891 3103 3008 2847 
Q 3125 2591 3125 2103 
L 3125 0 
L 2563 0 
L 2563 2103 
Q 2563 2525 2380 2717 
Q 2197 2909 1863 2909 
Q 1613 2909 1392 2779 
Q 1172 2650 1078 2428 
Q 984 2206 984 1816 
L 984 0 
L 422 0 
z
" transform="scale(0.015625)"/>
       <path id="ArialMT-52" d="M 503 0 
L 503 4581 
L 2534 4581 
Q 3147 4581 3465 4457 
Q 3784 4334 3975 4021 
Q 4166 3709 4166 3331 
Q 4166 2844 3850 2509 
Q 3534 2175 2875 2084 
Q 3116 1969 3241 1856 
Q 3506 1613 3744 1247 
L 4541 0 
L 3778 0 
L 3172 953 
Q 2906 1366 2734 1584 
Q 2563 1803 2427 1890 
Q 2291 1978 2150 2013 
Q 2047 2034 1813 2034 
L 1109 2034 
L 1109 0 
L 503 0 
z
M 1109 2559 
L 2413 2559 
Q 2828 2559 3062 2645 
Q 3297 2731 3419 2920 
Q 3541 3109 3541 3331 
Q 3541 3656 3305 3865 
Q 3069 4075 2559 4075 
L 1109 4075 
L 1109 2559 
z
" transform="scale(0.015625)"/>
      </defs>
      <use xlink:href="#ArialMT-44"/>
      <use xlink:href="#ArialMT-65" x="72.216797"/>
      <use xlink:href="#ArialMT-61" x="127.832031"/>
      <use xlink:href="#ArialMT-74" x="183.447266"/>
      <use xlink:href="#ArialMT-68" x="211.230469"/>
      <use xlink:href="#ArialMT-52" x="266.845703"/>
      <use xlink:href="#ArialMT-61" x="339.0625"/>
      <use xlink:href="#ArialMT-74" x="394.677734"/>
      <use xlink:href="#ArialMT-65" x="422.460938"/>
     </g>
    </g>
    <g id="line2d_16">
     <path d="M 174.326562 156.510469 
L 184.326562 156.510469 
L 194.326562 156.510469 
" style="fill: none; stroke: #2ca02c; stroke-width: 1.5; stroke-linecap: round"/>
    </g>
    <g id="text_13">
     <!-- MeanCentered -->
     <g style="fill: #262626" transform="translate(202.326562 160.010469)scale(0.1 -0.1)">
      <defs>
       <path id="ArialMT-4d" d="M 475 0 
L 475 4581 
L 1388 4581 
L 2472 1338 
Q 2622 884 2691 659 
Q 2769 909 2934 1394 
L 4031 4581 
L 4847 4581 
L 4847 0 
L 4263 0 
L 4263 3834 
L 2931 0 
L 2384 0 
L 1059 3900 
L 1059 0 
L 475 0 
z
" transform="scale(0.015625)"/>
       <path id="ArialMT-6e" d="M 422 0 
L 422 3319 
L 928 3319 
L 928 2847 
Q 1294 3394 1984 3394 
Q 2284 3394 2536 3286 
Q 2788 3178 2913 3003 
Q 3038 2828 3088 2588 
Q 3119 2431 3119 2041 
L 3119 0 
L 2556 0 
L 2556 2019 
Q 2556 2363 2490 2533 
Q 2425 2703 2258 2804 
Q 2091 2906 1866 2906 
Q 1506 2906 1245 2678 
Q 984 2450 984 1813 
L 984 0 
L 422 0 
z
" transform="scale(0.015625)"/>
       <path id="ArialMT-43" d="M 3763 1606 
L 4369 1453 
Q 4178 706 3683 314 
Q 3188 -78 2472 -78 
Q 1731 -78 1267 223 
Q 803 525 561 1097 
Q 319 1669 319 2325 
Q 319 3041 592 3573 
Q 866 4106 1370 4382 
Q 1875 4659 2481 4659 
Q 3169 4659 3637 4309 
Q 4106 3959 4291 3325 
L 3694 3184 
Q 3534 3684 3231 3912 
Q 2928 4141 2469 4141 
Q 1941 4141 1586 3887 
Q 1231 3634 1087 3207 
Q 944 2781 944 2328 
Q 944 1744 1114 1308 
Q 1284 872 1643 656 
Q 2003 441 2422 441 
Q 2931 441 3284 734 
Q 3638 1028 3763 1606 
z
" transform="scale(0.015625)"/>
       <path id="ArialMT-64" d="M 2575 0 
L 2575 419 
Q 2259 -75 1647 -75 
Q 1250 -75 917 144 
Q 584 363 401 755 
Q 219 1147 219 1656 
Q 219 2153 384 2558 
Q 550 2963 881 3178 
Q 1213 3394 1622 3394 
Q 1922 3394 2156 3267 
Q 2391 3141 2538 2938 
L 2538 4581 
L 3097 4581 
L 3097 0 
L 2575 0 
z
M 797 1656 
Q 797 1019 1065 703 
Q 1334 388 1700 388 
Q 2069 388 2326 689 
Q 2584 991 2584 1609 
Q 2584 2291 2321 2609 
Q 2059 2928 1675 2928 
Q 1300 2928 1048 2622 
Q 797 2316 797 1656 
z
" transform="scale(0.015625)"/>
      </defs>
      <use xlink:href="#ArialMT-4d"/>
      <use xlink:href="#ArialMT-65" x="83.300781"/>
      <use xlink:href="#ArialMT-61" x="138.916016"/>
      <use xlink:href="#ArialMT-6e" x="194.53125"/>
      <use xlink:href="#ArialMT-43" x="250.146484"/>
      <use xlink:href="#ArialMT-65" x="322.363281"/>
      <use xlink:href="#ArialMT-6e" x="377.978516"/>
      <use xlink:href="#ArialMT-74" x="433.59375"/>
      <use xlink:href="#ArialMT-65" x="461.376953"/>
      <use xlink:href="#ArialMT-72" x="516.992188"/>
      <use xlink:href="#ArialMT-65" x="550.292969"/>
      <use xlink:href="#ArialMT-64" x="605.908203"/>
     </g>
    </g>
   </g>
  </g>
 </g>
 <defs>
  <clipPath id="p2b759f226e">
   <rect x="54" y="34.56" width="334.8" height="217.44"/>
  </clipPath>
 </defs>
</svg>
