<?xml version="1.0" encoding="utf-8" standalone="no"?>
<!DOCTYPE svg PUBLIC "-//W3C//DTD SVG 1.1//EN"
  "http://www.w3.org/Graphics/SVG/1.1/DTD/svg11.dtd">
<svg xmlns:xlink="http://www.w3.org/1999/xlink" width="435.057569pt" height="266.890625pt" viewBox="0 0 435.057569 266.890625" xmlns="http://www.w3.org/2000/svg" version="1.1">
 <metadata>
  <rdf:RDF xmlns:dc="http://purl.org/dc/elements/1.1/" xmlns:cc="http://creativecommons.org/ns#" xmlns:rdf="http://www.w3.org/1999/02/22-rdf-syntax-ns#">
   <cc:Work>
    <dc:type rdf:resource="http://purl.org/dc/dcmitype/StillImage"/>
    <dc:date>2022-02-22T11:44:00.672034</dc:date>
    <dc:format>image/svg+xml</dc:format>
    <dc:creator>
     <cc:Agent>
      <dc:title>Matplotlib v3.5.0, https://matplotlib.org/</dc:title>
     </cc:Agent>
    </dc:creator>
   </cc:Work>
  </rdf:RDF>
 </metadata>
 <defs>
  <style type="text/css">*{stroke-linejoin: round; stroke-linecap: butt}</style>
 </defs>
 <g id="figure_1">
  <g id="patch_1">
   <path d="M 0 266.890625 
L 435.057569 266.890625 
L 435.057569 0 
L 0 0 
z
" style="fill: #ffffff"/>
  </g>
  <g id="axes_1">
   <g id="patch_2">
    <path d="M 49.589063 230.4 
L 338.483819 230.4 
L 338.483819 7.2 
L 49.589063 7.2 
z
" style="fill: #ffffff"/>
   </g>
   <g id="matplotlib.axis_1">
    <g id="xtick_1">
     <g id="line2d_1">
      <path d="M 62.720642 230.4 
L 62.720642 7.2 
" clip-path="url(#pea7ffca000)" style="fill: none; stroke: #cccccc; stroke-width: 0.8; stroke-linecap: round"/>
     </g>
     <g id="text_1">
      <!-- 1900 -->
      <g style="fill: #262626" transform="translate(51.598767 244.557812)scale(0.1 -0.1)">
       <defs>
        <path id="ArialMT-31" d="M 2384 0 
L 1822 0 
L 1822 3584 
Q 1619 3391 1289 3197 
Q 959 3003 697 2906 
L 697 3450 
Q 1169 3672 1522 3987 
Q 1875 4303 2022 4600 
L 2384 4600 
L 2384 0 
z
" transform="scale(0.015625)"/>
        <path id="ArialMT-39" d="M 350 1059 
L 891 1109 
Q 959 728 1153 556 
Q 1347 384 1650 384 
Q 1909 384 2104 503 
Q 2300 622 2425 820 
Q 2550 1019 2634 1356 
Q 2719 1694 2719 2044 
Q 2719 2081 2716 2156 
Q 2547 1888 2255 1720 
Q 1963 1553 1622 1553 
Q 1053 1553 659 1965 
Q 266 2378 266 3053 
Q 266 3750 677 4175 
Q 1088 4600 1706 4600 
Q 2153 4600 2523 4359 
Q 2894 4119 3086 3673 
Q 3278 3228 3278 2384 
Q 3278 1506 3087 986 
Q 2897 466 2520 194 
Q 2144 -78 1638 -78 
Q 1100 -78 759 220 
Q 419 519 350 1059 
z
M 2653 3081 
Q 2653 3566 2395 3850 
Q 2138 4134 1775 4134 
Q 1400 4134 1122 3828 
Q 844 3522 844 3034 
Q 844 2597 1108 2323 
Q 1372 2050 1759 2050 
Q 2150 2050 2401 2323 
Q 2653 2597 2653 3081 
z
" transform="scale(0.015625)"/>
        <path id="ArialMT-30" d="M 266 2259 
Q 266 3072 433 3567 
Q 600 4063 929 4331 
Q 1259 4600 1759 4600 
Q 2128 4600 2406 4451 
Q 2684 4303 2865 4023 
Q 3047 3744 3150 3342 
Q 3253 2941 3253 2259 
Q 3253 1453 3087 958 
Q 2922 463 2592 192 
Q 2263 -78 1759 -78 
Q 1097 -78 719 397 
Q 266 969 266 2259 
z
M 844 2259 
Q 844 1131 1108 757 
Q 1372 384 1759 384 
Q 2147 384 2411 759 
Q 2675 1134 2675 2259 
Q 2675 3391 2411 3762 
Q 2147 4134 1753 4134 
Q 1366 4134 1134 3806 
Q 844 3388 844 2259 
z
" transform="scale(0.015625)"/>
       </defs>
       <use xlink:href="#ArialMT-31"/>
       <use xlink:href="#ArialMT-39" x="55.615234"/>
       <use xlink:href="#ArialMT-30" x="111.230469"/>
       <use xlink:href="#ArialMT-30" x="166.845703"/>
      </g>
     </g>
    </g>
    <g id="xtick_2">
     <g id="line2d_2">
      <path d="M 107.234472 230.4 
L 107.234472 7.2 
" clip-path="url(#pea7ffca000)" style="fill: none; stroke: #cccccc; stroke-width: 0.8; stroke-linecap: round"/>
     </g>
     <g id="text_2">
      <!-- 1920 -->
      <g style="fill: #262626" transform="translate(96.112597 244.557812)scale(0.1 -0.1)">
       <defs>
        <path id="ArialMT-32" d="M 3222 541 
L 3222 0 
L 194 0 
Q 188 203 259 391 
Q 375 700 629 1000 
Q 884 1300 1366 1694 
Q 2113 2306 2375 2664 
Q 2638 3022 2638 3341 
Q 2638 3675 2398 3904 
Q 2159 4134 1775 4134 
Q 1369 4134 1125 3890 
Q 881 3647 878 3216 
L 300 3275 
Q 359 3922 746 4261 
Q 1134 4600 1788 4600 
Q 2447 4600 2831 4234 
Q 3216 3869 3216 3328 
Q 3216 3053 3103 2787 
Q 2991 2522 2730 2228 
Q 2469 1934 1863 1422 
Q 1356 997 1212 845 
Q 1069 694 975 541 
L 3222 541 
z
" transform="scale(0.015625)"/>
       </defs>
       <use xlink:href="#ArialMT-31"/>
       <use xlink:href="#ArialMT-39" x="55.615234"/>
       <use xlink:href="#ArialMT-32" x="111.230469"/>
       <use xlink:href="#ArialMT-30" x="166.845703"/>
      </g>
     </g>
    </g>
    <g id="xtick_3">
     <g id="line2d_3">
      <path d="M 151.748302 230.4 
L 151.748302 7.2 
" clip-path="url(#pea7ffca000)" style="fill: none; stroke: #cccccc; stroke-width: 0.8; stroke-linecap: round"/>
     </g>
     <g id="text_3">
      <!-- 1940 -->
      <g style="fill: #262626" transform="translate(140.626427 244.557812)scale(0.1 -0.1)">
       <defs>
        <path id="ArialMT-34" d="M 2069 0 
L 2069 1097 
L 81 1097 
L 81 1613 
L 2172 4581 
L 2631 4581 
L 2631 1613 
L 3250 1613 
L 3250 1097 
L 2631 1097 
L 2631 0 
L 2069 0 
z
M 2069 1613 
L 2069 3678 
L 634 1613 
L 2069 1613 
z
" transform="scale(0.015625)"/>
       </defs>
       <use xlink:href="#ArialMT-31"/>
       <use xlink:href="#ArialMT-39" x="55.615234"/>
       <use xlink:href="#ArialMT-34" x="111.230469"/>
       <use xlink:href="#ArialMT-30" x="166.845703"/>
      </g>
     </g>
    </g>
    <g id="xtick_4">
     <g id="line2d_4">
      <path d="M 196.262132 230.4 
L 196.262132 7.2 
" clip-path="url(#pea7ffca000)" style="fill: none; stroke: #cccccc; stroke-width: 0.8; stroke-linecap: round"/>
     </g>
     <g id="text_4">
      <!-- 1960 -->
      <g style="fill: #262626" transform="translate(185.140257 244.557812)scale(0.1 -0.1)">
       <defs>
        <path id="ArialMT-36" d="M 3184 3459 
L 2625 3416 
Q 2550 3747 2413 3897 
Q 2184 4138 1850 4138 
Q 1581 4138 1378 3988 
Q 1113 3794 959 3422 
Q 806 3050 800 2363 
Q 1003 2672 1297 2822 
Q 1591 2972 1913 2972 
Q 2475 2972 2870 2558 
Q 3266 2144 3266 1488 
Q 3266 1056 3080 686 
Q 2894 316 2569 119 
Q 2244 -78 1831 -78 
Q 1128 -78 684 439 
Q 241 956 241 2144 
Q 241 3472 731 4075 
Q 1159 4600 1884 4600 
Q 2425 4600 2770 4297 
Q 3116 3994 3184 3459 
z
M 888 1484 
Q 888 1194 1011 928 
Q 1134 663 1356 523 
Q 1578 384 1822 384 
Q 2178 384 2434 671 
Q 2691 959 2691 1453 
Q 2691 1928 2437 2201 
Q 2184 2475 1800 2475 
Q 1419 2475 1153 2201 
Q 888 1928 888 1484 
z
" transform="scale(0.015625)"/>
       </defs>
       <use xlink:href="#ArialMT-31"/>
       <use xlink:href="#ArialMT-39" x="55.615234"/>
       <use xlink:href="#ArialMT-36" x="111.230469"/>
       <use xlink:href="#ArialMT-30" x="166.845703"/>
      </g>
     </g>
    </g>
    <g id="xtick_5">
     <g id="line2d_5">
      <path d="M 240.775963 230.4 
L 240.775963 7.2 
" clip-path="url(#pea7ffca000)" style="fill: none; stroke: #cccccc; stroke-width: 0.8; stroke-linecap: round"/>
     </g>
     <g id="text_5">
      <!-- 1980 -->
      <g style="fill: #262626" transform="translate(229.654088 244.557812)scale(0.1 -0.1)">
       <defs>
        <path id="ArialMT-38" d="M 1131 2484 
Q 781 2613 612 2850 
Q 444 3088 444 3419 
Q 444 3919 803 4259 
Q 1163 4600 1759 4600 
Q 2359 4600 2725 4251 
Q 3091 3903 3091 3403 
Q 3091 3084 2923 2848 
Q 2756 2613 2416 2484 
Q 2838 2347 3058 2040 
Q 3278 1734 3278 1309 
Q 3278 722 2862 322 
Q 2447 -78 1769 -78 
Q 1091 -78 675 323 
Q 259 725 259 1325 
Q 259 1772 486 2073 
Q 713 2375 1131 2484 
z
M 1019 3438 
Q 1019 3113 1228 2906 
Q 1438 2700 1772 2700 
Q 2097 2700 2305 2904 
Q 2513 3109 2513 3406 
Q 2513 3716 2298 3927 
Q 2084 4138 1766 4138 
Q 1444 4138 1231 3931 
Q 1019 3725 1019 3438 
z
M 838 1322 
Q 838 1081 952 856 
Q 1066 631 1291 507 
Q 1516 384 1775 384 
Q 2178 384 2440 643 
Q 2703 903 2703 1303 
Q 2703 1709 2433 1975 
Q 2163 2241 1756 2241 
Q 1359 2241 1098 1978 
Q 838 1716 838 1322 
z
" transform="scale(0.015625)"/>
       </defs>
       <use xlink:href="#ArialMT-31"/>
       <use xlink:href="#ArialMT-39" x="55.615234"/>
       <use xlink:href="#ArialMT-38" x="111.230469"/>
       <use xlink:href="#ArialMT-30" x="166.845703"/>
      </g>
     </g>
    </g>
    <g id="xtick_6">
     <g id="line2d_6">
      <path d="M 285.289793 230.4 
L 285.289793 7.2 
" clip-path="url(#pea7ffca000)" style="fill: none; stroke: #cccccc; stroke-width: 0.8; stroke-linecap: round"/>
     </g>
     <g id="text_6">
      <!-- 2000 -->
      <g style="fill: #262626" transform="translate(274.167918 244.557812)scale(0.1 -0.1)">
       <use xlink:href="#ArialMT-32"/>
       <use xlink:href="#ArialMT-30" x="55.615234"/>
       <use xlink:href="#ArialMT-30" x="111.230469"/>
       <use xlink:href="#ArialMT-30" x="166.845703"/>
      </g>
     </g>
    </g>
    <g id="xtick_7">
     <g id="line2d_7">
      <path d="M 329.803623 230.4 
L 329.803623 7.2 
" clip-path="url(#pea7ffca000)" style="fill: none; stroke: #cccccc; stroke-width: 0.8; stroke-linecap: round"/>
     </g>
     <g id="text_7">
      <!-- 2020 -->
      <g style="fill: #262626" transform="translate(318.681748 244.557812)scale(0.1 -0.1)">
       <use xlink:href="#ArialMT-32"/>
       <use xlink:href="#ArialMT-30" x="55.615234"/>
       <use xlink:href="#ArialMT-32" x="111.230469"/>
       <use xlink:href="#ArialMT-30" x="166.845703"/>
      </g>
     </g>
    </g>
    <g id="text_8">
     <!-- Year -->
     <g style="fill: #262626" transform="translate(183.931753 257.703125)scale(0.1 -0.1)">
      <defs>
       <path id="ArialMT-59" d="M 1784 0 
L 1784 1941 
L 19 4581 
L 756 4581 
L 1659 3200 
Q 1909 2813 2125 2425 
Q 2331 2784 2625 3234 
L 3513 4581 
L 4219 4581 
L 2391 1941 
L 2391 0 
L 1784 0 
z
" transform="scale(0.015625)"/>
       <path id="ArialMT-65" d="M 2694 1069 
L 3275 997 
Q 3138 488 2766 206 
Q 2394 -75 1816 -75 
Q 1088 -75 661 373 
Q 234 822 234 1631 
Q 234 2469 665 2931 
Q 1097 3394 1784 3394 
Q 2450 3394 2872 2941 
Q 3294 2488 3294 1666 
Q 3294 1616 3291 1516 
L 816 1516 
Q 847 969 1125 678 
Q 1403 388 1819 388 
Q 2128 388 2347 550 
Q 2566 713 2694 1069 
z
M 847 1978 
L 2700 1978 
Q 2663 2397 2488 2606 
Q 2219 2931 1791 2931 
Q 1403 2931 1139 2672 
Q 875 2413 847 1978 
z
" transform="scale(0.015625)"/>
       <path id="ArialMT-61" d="M 2588 409 
Q 2275 144 1986 34 
Q 1697 -75 1366 -75 
Q 819 -75 525 192 
Q 231 459 231 875 
Q 231 1119 342 1320 
Q 453 1522 633 1644 
Q 813 1766 1038 1828 
Q 1203 1872 1538 1913 
Q 2219 1994 2541 2106 
Q 2544 2222 2544 2253 
Q 2544 2597 2384 2738 
Q 2169 2928 1744 2928 
Q 1347 2928 1158 2789 
Q 969 2650 878 2297 
L 328 2372 
Q 403 2725 575 2942 
Q 747 3159 1072 3276 
Q 1397 3394 1825 3394 
Q 2250 3394 2515 3294 
Q 2781 3194 2906 3042 
Q 3031 2891 3081 2659 
Q 3109 2516 3109 2141 
L 3109 1391 
Q 3109 606 3145 398 
Q 3181 191 3288 0 
L 2700 0 
Q 2613 175 2588 409 
z
M 2541 1666 
Q 2234 1541 1622 1453 
Q 1275 1403 1131 1340 
Q 988 1278 909 1158 
Q 831 1038 831 891 
Q 831 666 1001 516 
Q 1172 366 1500 366 
Q 1825 366 2078 508 
Q 2331 650 2450 897 
Q 2541 1088 2541 1459 
L 2541 1666 
z
" transform="scale(0.015625)"/>
       <path id="ArialMT-72" d="M 416 0 
L 416 3319 
L 922 3319 
L 922 2816 
Q 1116 3169 1280 3281 
Q 1444 3394 1641 3394 
Q 1925 3394 2219 3213 
L 2025 2691 
Q 1819 2813 1613 2813 
Q 1428 2813 1281 2702 
Q 1134 2591 1072 2394 
Q 978 2094 978 1738 
L 978 0 
L 416 0 
z
" transform="scale(0.015625)"/>
      </defs>
      <use xlink:href="#ArialMT-59"/>
      <use xlink:href="#ArialMT-65" x="57.574219"/>
      <use xlink:href="#ArialMT-61" x="113.189453"/>
      <use xlink:href="#ArialMT-72" x="168.804688"/>
     </g>
    </g>
   </g>
   <g id="matplotlib.axis_2">
    <g id="ytick_1">
     <g id="line2d_8">
      <path d="M 49.589063 221.427311 
L 338.483819 221.427311 
" clip-path="url(#pea7ffca000)" style="fill: none; stroke: #cccccc; stroke-width: 0.8; stroke-linecap: round"/>
     </g>
     <g id="text_9">
      <!-- 0 -->
      <g style="fill: #262626" transform="translate(37.028125 225.006218)scale(0.1 -0.1)">
       <use xlink:href="#ArialMT-30"/>
      </g>
     </g>
    </g>
    <g id="ytick_2">
     <g id="line2d_9">
      <path d="M 49.589063 195.708759 
L 338.483819 195.708759 
" clip-path="url(#pea7ffca000)" style="fill: none; stroke: #cccccc; stroke-width: 0.8; stroke-linecap: round"/>
     </g>
     <g id="text_10">
      <!-- 250 -->
      <g style="fill: #262626" transform="translate(25.90625 199.287665)scale(0.1 -0.1)">
       <defs>
        <path id="ArialMT-35" d="M 266 1200 
L 856 1250 
Q 922 819 1161 601 
Q 1400 384 1738 384 
Q 2144 384 2425 690 
Q 2706 997 2706 1503 
Q 2706 1984 2436 2262 
Q 2166 2541 1728 2541 
Q 1456 2541 1237 2417 
Q 1019 2294 894 2097 
L 366 2166 
L 809 4519 
L 3088 4519 
L 3088 3981 
L 1259 3981 
L 1013 2750 
Q 1425 3038 1878 3038 
Q 2478 3038 2890 2622 
Q 3303 2206 3303 1553 
Q 3303 931 2941 478 
Q 2500 -78 1738 -78 
Q 1113 -78 717 272 
Q 322 622 266 1200 
z
" transform="scale(0.015625)"/>
       </defs>
       <use xlink:href="#ArialMT-32"/>
       <use xlink:href="#ArialMT-35" x="55.615234"/>
       <use xlink:href="#ArialMT-30" x="111.230469"/>
      </g>
     </g>
    </g>
    <g id="ytick_3">
     <g id="line2d_10">
      <path d="M 49.589063 169.990207 
L 338.483819 169.990207 
" clip-path="url(#pea7ffca000)" style="fill: none; stroke: #cccccc; stroke-width: 0.8; stroke-linecap: round"/>
     </g>
     <g id="text_11">
      <!-- 500 -->
      <g style="fill: #262626" transform="translate(25.90625 173.569113)scale(0.1 -0.1)">
       <use xlink:href="#ArialMT-35"/>
       <use xlink:href="#ArialMT-30" x="55.615234"/>
       <use xlink:href="#ArialMT-30" x="111.230469"/>
      </g>
     </g>
    </g>
    <g id="ytick_4">
     <g id="line2d_11">
      <path d="M 49.589063 144.271654 
L 338.483819 144.271654 
" clip-path="url(#pea7ffca000)" style="fill: none; stroke: #cccccc; stroke-width: 0.8; stroke-linecap: round"/>
     </g>
     <g id="text_12">
      <!-- 750 -->
      <g style="fill: #262626" transform="translate(25.90625 147.850561)scale(0.1 -0.1)">
       <defs>
        <path id="ArialMT-37" d="M 303 3981 
L 303 4522 
L 3269 4522 
L 3269 4084 
Q 2831 3619 2401 2847 
Q 1972 2075 1738 1259 
Q 1569 684 1522 0 
L 944 0 
Q 953 541 1156 1306 
Q 1359 2072 1739 2783 
Q 2119 3494 2547 3981 
L 303 3981 
z
" transform="scale(0.015625)"/>
       </defs>
       <use xlink:href="#ArialMT-37"/>
       <use xlink:href="#ArialMT-35" x="55.615234"/>
       <use xlink:href="#ArialMT-30" x="111.230469"/>
      </g>
     </g>
    </g>
    <g id="ytick_5">
     <g id="line2d_12">
      <path d="M 49.589063 118.553102 
L 338.483819 118.553102 
" clip-path="url(#pea7ffca000)" style="fill: none; stroke: #cccccc; stroke-width: 0.8; stroke-linecap: round"/>
     </g>
     <g id="text_13">
      <!-- 1000 -->
      <g style="fill: #262626" transform="translate(20.345313 122.132008)scale(0.1 -0.1)">
       <use xlink:href="#ArialMT-31"/>
       <use xlink:href="#ArialMT-30" x="55.615234"/>
       <use xlink:href="#ArialMT-30" x="111.230469"/>
       <use xlink:href="#ArialMT-30" x="166.845703"/>
      </g>
     </g>
    </g>
    <g id="ytick_6">
     <g id="line2d_13">
      <path d="M 49.589063 92.83455 
L 338.483819 92.83455 
" clip-path="url(#pea7ffca000)" style="fill: none; stroke: #cccccc; stroke-width: 0.8; stroke-linecap: round"/>
     </g>
     <g id="text_14">
      <!-- 1250 -->
      <g style="fill: #262626" transform="translate(20.345313 96.413456)scale(0.1 -0.1)">
       <use xlink:href="#ArialMT-31"/>
       <use xlink:href="#ArialMT-32" x="55.615234"/>
       <use xlink:href="#ArialMT-35" x="111.230469"/>
       <use xlink:href="#ArialMT-30" x="166.845703"/>
      </g>
     </g>
    </g>
    <g id="ytick_7">
     <g id="line2d_14">
      <path d="M 49.589063 67.115997 
L 338.483819 67.115997 
" clip-path="url(#pea7ffca000)" style="fill: none; stroke: #cccccc; stroke-width: 0.8; stroke-linecap: round"/>
     </g>
     <g id="text_15">
      <!-- 1500 -->
      <g style="fill: #262626" transform="translate(20.345313 70.694903)scale(0.1 -0.1)">
       <use xlink:href="#ArialMT-31"/>
       <use xlink:href="#ArialMT-35" x="55.615234"/>
       <use xlink:href="#ArialMT-30" x="111.230469"/>
       <use xlink:href="#ArialMT-30" x="166.845703"/>
      </g>
     </g>
    </g>
    <g id="ytick_8">
     <g id="line2d_15">
      <path d="M 49.589063 41.397445 
L 338.483819 41.397445 
" clip-path="url(#pea7ffca000)" style="fill: none; stroke: #cccccc; stroke-width: 0.8; stroke-linecap: round"/>
     </g>
     <g id="text_16">
      <!-- 1750 -->
      <g style="fill: #262626" transform="translate(20.345313 44.976351)scale(0.1 -0.1)">
       <use xlink:href="#ArialMT-31"/>
       <use xlink:href="#ArialMT-37" x="55.615234"/>
       <use xlink:href="#ArialMT-35" x="111.230469"/>
       <use xlink:href="#ArialMT-30" x="166.845703"/>
      </g>
     </g>
    </g>
    <g id="ytick_9">
     <g id="line2d_16">
      <path d="M 49.589063 15.678892 
L 338.483819 15.678892 
" clip-path="url(#pea7ffca000)" style="fill: none; stroke: #cccccc; stroke-width: 0.8; stroke-linecap: round"/>
     </g>
     <g id="text_17">
      <!-- 2000 -->
      <g style="fill: #262626" transform="translate(20.345313 19.257799)scale(0.1 -0.1)">
       <use xlink:href="#ArialMT-32"/>
       <use xlink:href="#ArialMT-30" x="55.615234"/>
       <use xlink:href="#ArialMT-30" x="111.230469"/>
       <use xlink:href="#ArialMT-30" x="166.845703"/>
      </g>
     </g>
    </g>
    <g id="text_18">
     <!-- DeathRate -->
     <g style="fill: #262626" transform="translate(14.357813 142.702344)rotate(-90)scale(0.1 -0.1)">
      <defs>
       <path id="ArialMT-44" d="M 494 0 
L 494 4581 
L 2072 4581 
Q 2606 4581 2888 4516 
Q 3281 4425 3559 4188 
Q 3922 3881 4101 3404 
Q 4281 2928 4281 2316 
Q 4281 1794 4159 1391 
Q 4038 988 3847 723 
Q 3656 459 3429 307 
Q 3203 156 2883 78 
Q 2563 0 2147 0 
L 494 0 
z
M 1100 541 
L 2078 541 
Q 2531 541 2789 625 
Q 3047 709 3200 863 
Q 3416 1078 3536 1442 
Q 3656 1806 3656 2325 
Q 3656 3044 3420 3430 
Q 3184 3816 2847 3947 
Q 2603 4041 2063 4041 
L 1100 4041 
L 1100 541 
z
" transform="scale(0.015625)"/>
       <path id="ArialMT-74" d="M 1650 503 
L 1731 6 
Q 1494 -44 1306 -44 
Q 1000 -44 831 53 
Q 663 150 594 308 
Q 525 466 525 972 
L 525 2881 
L 113 2881 
L 113 3319 
L 525 3319 
L 525 4141 
L 1084 4478 
L 1084 3319 
L 1650 3319 
L 1650 2881 
L 1084 2881 
L 1084 941 
Q 1084 700 1114 631 
Q 1144 563 1211 522 
Q 1278 481 1403 481 
Q 1497 481 1650 503 
z
" transform="scale(0.015625)"/>
       <path id="ArialMT-68" d="M 422 0 
L 422 4581 
L 984 4581 
L 984 2938 
Q 1378 3394 1978 3394 
Q 2347 3394 2619 3248 
Q 2891 3103 3008 2847 
Q 3125 2591 3125 2103 
L 3125 0 
L 2563 0 
L 2563 2103 
Q 2563 2525 2380 2717 
Q 2197 2909 1863 2909 
Q 1613 2909 1392 2779 
Q 1172 2650 1078 2428 
Q 984 2206 984 1816 
L 984 0 
L 422 0 
z
" transform="scale(0.015625)"/>
       <path id="ArialMT-52" d="M 503 0 
L 503 4581 
L 2534 4581 
Q 3147 4581 3465 4457 
Q 3784 4334 3975 4021 
Q 4166 3709 4166 3331 
Q 4166 2844 3850 2509 
Q 3534 2175 2875 2084 
Q 3116 1969 3241 1856 
Q 3506 1613 3744 1247 
L 4541 0 
L 3778 0 
L 3172 953 
Q 2906 1366 2734 1584 
Q 2563 1803 2427 1890 
Q 2291 1978 2150 2013 
Q 2047 2034 1813 2034 
L 1109 2034 
L 1109 0 
L 503 0 
z
M 1109 2559 
L 2413 2559 
Q 2828 2559 3062 2645 
Q 3297 2731 3419 2920 
Q 3541 3109 3541 3331 
Q 3541 3656 3305 3865 
Q 3069 4075 2559 4075 
L 1109 4075 
L 1109 2559 
z
" transform="scale(0.015625)"/>
      </defs>
      <use xlink:href="#ArialMT-44"/>
      <use xlink:href="#ArialMT-65" x="72.216797"/>
      <use xlink:href="#ArialMT-61" x="127.832031"/>
      <use xlink:href="#ArialMT-74" x="183.447266"/>
      <use xlink:href="#ArialMT-68" x="211.230469"/>
      <use xlink:href="#ArialMT-52" x="266.845703"/>
      <use xlink:href="#ArialMT-61" x="339.0625"/>
      <use xlink:href="#ArialMT-74" x="394.677734"/>
      <use xlink:href="#ArialMT-65" x="422.460938"/>
     </g>
    </g>
   </g>
   <g id="line2d_17">
    <path d="M 62.720642 17.345455 
L 64.946334 47.055526 
L 67.172025 51.098483 
L 69.397717 62.784993 
L 71.623408 57.703007 
L 73.8491 67.229159 
L 76.074791 58.88606 
L 78.300483 70.37711 
L 80.526174 77.732616 
L 82.751866 82.66029 
L 84.977557 77.681178 
L 87.203249 100.447241 
L 89.42894 108.872639 
L 91.654632 98.65723 
L 93.880323 116.063546 
L 96.106015 126.350967 
L 98.331706 107.082628 
L 100.557398 111.763404 
L 102.783089 59.554743 
L 105.008781 125.960045 
L 107.234472 119.869892 
L 109.460164 139.004495 
L 111.685855 145.094648 
L 113.911547 138.438687 
L 116.137238 151.143651 
L 118.36293 155.484943 
L 120.588621 147.008108 
L 122.814313 160.628654 
L 125.040004 154.816261 
L 127.265696 157.079493 
L 129.491387 163.447407 
L 131.717079 167.253753 
L 133.94277 173.909714 
L 136.168462 172.80896 
L 138.394153 169.198075 
L 140.619845 176.070072 
L 142.845536 176.183234 
L 145.071228 178.35388 
L 147.296919 181.94419 
L 149.522611 188.682451 
L 151.748302 191.63494 
L 153.973994 192.63282 
L 156.199685 196.387729 
L 158.425377 195.050364 
L 160.651068 197.457621 
L 162.87676 200.543847 
L 165.102451 202.755642 
L 167.328143 204.885139 
L 169.553834 204.95715 
L 171.779526 205.975605 
L 174.005217 207.086647 
L 176.230909 207.343832 
L 178.4566 206.91176 
L 180.682292 208.053664 
L 182.907983 209.257292 
L 185.133675 209.761376 
L 187.359366 210.090574 
L 189.585058 209.925975 
L 191.810749 209.936262 
L 194.036441 210.430058 
L 196.262132 210.203735 
L 198.487824 210.965004 
L 200.713515 211.22219 
L 202.939207 210.985579 
L 205.164898 211.294202 
L 207.39059 211.561675 
L 209.616281 211.510238 
L 211.841973 212.230357 
L 214.067664 212.209782 
L 216.293356 212.374381 
L 218.519047 212.734441 
L 220.744739 212.960764 
L 222.97043 213.156225 
L 225.196122 213.300249 
L 227.421814 213.886632 
L 229.647505 214.236404 
L 231.873197 214.349566 
L 234.098888 214.473015 
L 236.32458 214.442153 
L 238.550271 214.822787 
L 240.775963 214.853649 
L 243.001654 215.193134 
L 245.227346 215.440032 
L 247.453037 215.656068 
L 249.678729 216.057278 
L 251.90442 216.098427 
L 254.130112 216.036703 
L 256.355803 216.067565 
L 258.581495 216.12929 
L 260.807186 216.304176 
L 263.032878 216.612798 
L 265.258569 216.551074 
L 267.484261 216.952283 
L 269.709952 216.839122 
L 271.935644 217.034583 
L 274.161335 217.271193 
L 276.387027 217.518091 
L 278.612718 217.775277 
L 280.83841 217.919301 
L 283.064101 217.909013 
L 285.289793 218.094187 
L 287.515484 217.991313 
L 289.741176 218.197061 
L 291.966867 218.155912 
L 294.192559 218.310223 
L 296.41825 218.351373 
L 298.643942 218.433672 
L 300.869633 218.40281 
L 303.095325 218.413097 
L 305.321016 218.608558 
L 307.546708 218.701145 
L 309.772399 218.72172 
L 311.998091 218.72172 
L 314.223782 218.804019 
L 316.449474 218.95833 
L 318.675165 218.865744 
L 320.900857 218.824594 
L 323.126548 218.927468 
L 325.35224 218.95833 
" clip-path="url(#pea7ffca000)" style="fill: none; stroke: #1f77b4; stroke-width: 1.5; stroke-linecap: round"/>
   </g>
   <g id="line2d_18">
    <path d="M 62.720642 173.477642 
L 64.946334 177.438299 
L 67.172025 179.938143 
L 69.397717 178.765377 
L 71.623408 177.705772 
L 73.8491 180.658262 
L 76.074791 182.602585 
L 78.300483 183.8165 
L 80.526174 184.989266 
L 82.751866 187.458247 
L 84.977557 185.585937 
L 87.203249 189.536306 
L 89.42894 191.850976 
L 91.654632 188.744175 
L 93.880323 191.429192 
L 96.106015 194.618292 
L 98.331706 192.375635 
L 100.557398 191.521779 
L 102.783089 175.349953 
L 105.008781 190.565049 
L 107.234472 191.058845 
L 109.460164 192.478509 
L 111.685855 196.778651 
L 113.911547 196.737501 
L 116.137238 198.620099 
L 118.36293 199.669416 
L 120.588621 199.432805 
L 122.814313 199.998614 
L 125.040004 199.504817 
L 127.265696 200.029476 
L 129.491387 201.901786 
L 131.717079 202.704205 
L 133.94277 204.36048 
L 136.168462 204.833701 
L 138.394153 204.442779 
L 140.619845 204.72054 
L 142.845536 205.522959 
L 145.071228 206.726587 
L 147.296919 208.177113 
L 149.522611 209.843675 
L 151.748302 210.286035 
L 153.973994 210.748968 
L 156.199685 211.5411 
L 158.425377 210.82098 
L 160.651068 211.273627 
L 162.87676 211.798285 
L 165.102451 212.621279 
L 167.328143 213.886632 
L 169.553834 214.164392 
L 171.779526 214.41129 
L 174.005217 215.079973 
L 176.230909 215.079973 
L 178.4566 215.121122 
L 180.682292 215.656068 
L 182.907983 216.026415 
L 185.133675 216.221876 
L 187.359366 216.458487 
L 189.585058 216.273314 
L 191.810749 216.4482 
L 194.036441 216.345325 
L 196.262132 216.386475 
L 198.487824 216.715673 
L 200.713515 216.736247 
L 202.939207 216.76711 
L 205.164898 216.839122 
L 207.39059 216.911134 
L 209.616281 216.869984 
L 211.841973 217.014008 
L 214.067664 216.849409 
L 216.293356 216.900846 
L 218.519047 217.096307 
L 220.744739 217.106595 
L 222.97043 217.230044 
L 225.196122 217.199181 
L 227.421814 217.600391 
L 229.647505 217.806139 
L 231.873197 217.919301 
L 234.098888 218.0016 
L 236.32458 218.063325 
L 238.550271 218.227924 
L 240.775963 218.299935 
L 243.001654 218.433672 
L 245.227346 218.515971 
L 247.453037 218.701145 
L 249.678729 218.824594 
L 251.90442 218.855456 
L 254.130112 218.968618 
L 256.355803 218.886318 
L 258.581495 218.906893 
L 260.807186 218.948043 
L 263.032878 219.143504 
L 265.258569 219.215516 
L 267.484261 219.338965 
L 269.709952 219.266953 
L 271.935644 219.40069 
L 274.161335 219.431552 
L 276.387027 219.472701 
L 278.612718 219.575576 
L 280.83841 219.657875 
L 283.064101 219.688737 
L 285.289793 219.801899 
L 287.515484 219.853336 
L 289.741176 219.863623 
L 291.966867 219.904773 
L 294.192559 219.904773 
L 296.41825 219.925348 
L 298.643942 219.987073 
L 300.869633 220.007647 
L 303.095325 220.131096 
L 305.321016 220.141384 
L 307.546708 220.244258 
L 309.772399 220.182534 
L 311.998091 220.254545 
L 314.223782 220.213396 
L 316.449474 220.244258 
L 318.675165 220.223683 
L 320.900857 220.172246 
L 323.126548 220.233971 
L 325.35224 220.244258 
" clip-path="url(#pea7ffca000)" style="fill: none; stroke: #ff7f0e; stroke-width: 1.5; stroke-linecap: round"/>
   </g>
   <g id="line2d_19">
    <path d="M 62.720642 190.739935 
L 64.946334 193.280928 
L 67.172025 195.451574 
L 69.397717 193.836448 
L 71.623408 190.030103 
L 73.8491 192.643108 
L 76.074791 193.424952 
L 78.300483 194.083347 
L 80.526174 195.924795 
L 82.751866 197.714806 
L 84.977557 197.159285 
L 87.203249 198.568662 
L 89.42894 200.626146 
L 91.654632 199.329931 
L 93.880323 200.111775 
L 96.106015 201.191954 
L 98.331706 200.327811 
L 100.557398 198.908147 
L 102.783089 182.839195 
L 105.008781 197.107848 
L 107.234472 197.776531 
L 109.460164 199.834015 
L 111.685855 202.230984 
L 113.911547 202.066385 
L 116.137238 202.930529 
L 118.36293 202.80708 
L 120.588621 203.794672 
L 122.814313 204.195881 
L 125.040004 203.547774 
L 127.265696 204.453067 
L 129.491387 205.708132 
L 131.717079 205.965318 
L 133.94277 206.798599 
L 136.168462 207.230671 
L 138.394153 206.870611 
L 140.619845 206.67515 
L 142.845536 206.922048 
L 145.071228 208.22855 
L 147.296919 209.720226 
L 149.522611 210.471208 
L 151.748302 211.191328 
L 153.973994 211.685124 
L 156.199685 212.600704 
L 158.425377 212.106908 
L 160.651068 212.199495 
L 162.87676 212.49783 
L 165.102451 213.341399 
L 167.328143 214.442153 
L 169.553834 214.678763 
L 171.779526 214.884512 
L 174.005217 215.45032 
L 176.230909 215.625206 
L 178.4566 215.584056 
L 180.682292 215.964691 
L 182.907983 216.509924 
L 185.133675 216.633373 
L 187.359366 216.664236 
L 189.585058 216.551074 
L 191.810749 216.839122 
L 194.036441 216.715673 
L 196.262132 216.900846 
L 198.487824 217.116882 
L 200.713515 217.116882 
L 202.939207 217.188894 
L 205.164898 217.147744 
L 207.39059 217.260906 
L 209.616281 217.199181 
L 211.841973 217.260906 
L 214.067664 217.147744 
L 216.293356 217.178607 
L 218.519047 217.250619 
L 220.744739 217.32263 
L 222.97043 217.271193 
L 225.196122 217.281481 
L 227.421814 217.487229 
L 229.647505 217.795852 
L 231.873197 217.909013 
L 234.098888 217.867864 
L 236.32458 217.960451 
L 238.550271 218.155912 
L 240.775963 218.258786 
L 243.001654 218.392522 
L 245.227346 218.526259 
L 247.453037 218.618846 
L 249.678729 218.515971 
L 251.90442 218.546834 
L 254.130112 218.485109 
L 256.355803 218.63942 
L 258.581495 218.577696 
L 260.807186 218.608558 
L 263.032878 218.752582 
L 265.258569 218.793732 
L 267.484261 218.917181 
L 269.709952 218.824594 
L 271.935644 218.876031 
L 274.161335 218.845169 
L 276.387027 219.020055 
L 278.612718 219.112642 
L 280.83841 219.215516 
L 283.064101 219.328678 
L 285.289793 219.338965 
L 287.515484 219.462414 
L 289.741176 219.431552 
L 291.966867 219.482989 
L 294.192559 219.534426 
L 296.41825 219.606438 
L 298.643942 219.760749 
L 300.869633 219.729887 
L 303.095325 219.863623 
L 305.321016 219.873911 
L 307.546708 219.95621 
L 309.772399 219.966498 
L 311.998091 219.99736 
L 314.223782 219.976785 
L 316.449474 219.987073 
L 318.675165 219.925348 
L 320.900857 219.925348 
L 323.126548 219.832761 
L 325.35224 219.894486 
" clip-path="url(#pea7ffca000)" style="fill: none; stroke: #2ca02c; stroke-width: 1.5; stroke-linecap: round"/>
   </g>
   <g id="line2d_20">
    <path d="M 62.720642 171.553895 
L 64.946334 174.681271 
L 67.172025 178.065832 
L 69.397717 176.769617 
L 71.623408 172.932409 
L 73.8491 176.234671 
L 76.074791 175.627713 
L 78.300483 176.39927 
L 80.526174 180.514238 
L 82.751866 184.022249 
L 84.977557 183.168393 
L 87.203249 183.775351 
L 89.42894 185.709386 
L 91.654632 184.361734 
L 93.880323 186.398643 
L 96.106015 187.386236 
L 98.331706 184.824668 
L 100.557398 182.30425 
L 102.783089 141.452901 
L 105.008781 176.316971 
L 107.234472 179.979292 
L 109.460164 187.838882 
L 111.685855 188.548714 
L 113.911547 187.910894 
L 116.137238 189.176247 
L 118.36293 189.12481 
L 120.588621 189.793492 
L 122.814313 191.645228 
L 125.040004 189.76263 
L 127.265696 190.770797 
L 129.491387 192.848856 
L 131.717079 194.319957 
L 133.94277 196.994687 
L 136.168462 198.445213 
L 138.394153 198.383489 
L 140.619845 198.558375 
L 142.845536 197.725094 
L 145.071228 198.89786 
L 147.296919 201.644601 
L 149.522611 202.930529 
L 151.748302 203.774097 
L 153.973994 204.04157 
L 156.199685 205.512671 
L 158.425377 204.555941 
L 160.651068 205.183474 
L 162.87676 205.759569 
L 165.102451 207.251245 
L 167.328143 208.382862 
L 169.553834 209.216143 
L 171.779526 209.925975 
L 174.005217 210.255172 
L 176.230909 210.22431 
L 178.4566 209.658502 
L 180.682292 210.430058 
L 182.907983 211.5411 
L 185.133675 211.417651 
L 187.359366 211.427938 
L 189.585058 211.119316 
L 191.810749 212.014321 
L 194.036441 211.880585 
L 196.262132 211.942309 
L 198.487824 212.364094 
L 200.713515 212.415531 
L 202.939207 212.117195 
L 205.164898 211.767423 
L 207.39059 211.623399 
L 209.616281 210.934142 
L 211.841973 210.923855 
L 214.067664 210.306609 
L 216.293356 209.751089 
L 218.519047 210.080286 
L 220.744739 210.080286 
L 222.97043 210.069999 
L 225.196122 210.008274 
L 227.421814 210.646094 
L 229.647505 211.119316 
L 231.873197 211.58225 
L 234.098888 211.160465 
L 236.32458 211.253052 
L 238.550271 211.26334 
L 240.775963 211.355926 
L 243.001654 212.168633 
L 245.227346 212.641854 
L 247.453037 213.084213 
L 249.678729 213.156225 
L 251.90442 213.145938 
L 254.130112 212.559555 
L 256.355803 212.837315 
L 258.581495 212.508117 
L 260.807186 212.590417 
L 263.032878 212.384668 
L 265.258569 212.302369 
L 267.484261 212.827028 
L 269.709952 212.600704 
L 271.935644 212.631567 
L 274.161335 212.981339 
L 276.387027 213.45456 
L 278.612718 213.85577 
L 280.83841 214.277554 
L 283.064101 214.370141 
L 285.289793 214.524452 
L 287.515484 214.606751 
L 289.741176 214.534739 
L 291.966867 214.699338 
L 294.192559 214.750775 
L 296.41825 214.863937 
L 298.643942 214.946236 
L 300.869633 215.223997 
L 303.095325 215.676643 
L 305.321016 216.08814 
L 307.546708 216.345325 
L 309.772399 216.396763 
L 311.998091 216.571649 
L 314.223782 216.818547 
L 316.449474 216.746535 
L 318.675165 216.458487 
L 320.900857 216.160152 
L 323.126548 216.12929 
L 325.35224 216.3659 
" clip-path="url(#pea7ffca000)" style="fill: none; stroke: #d62728; stroke-width: 1.5; stroke-linecap: round"/>
   </g>
   <g id="line2d_21"/>
   <g id="line2d_22"/>
   <g id="line2d_23"/>
   <g id="line2d_24"/>
   <g id="patch_3">
    <path d="M 49.589063 230.4 
L 49.589063 7.2 
" style="fill: none; stroke: #cccccc; stroke-width: 0.8; stroke-linejoin: miter; stroke-linecap: square"/>
   </g>
   <g id="patch_4">
    <path d="M 49.589063 230.4 
L 338.483819 230.4 
" style="fill: none; stroke: #cccccc; stroke-width: 0.8; stroke-linejoin: miter; stroke-linecap: square"/>
   </g>
  </g>
  <g id="legend_1">
   <g id="text_19">
    <!-- AgeGroup -->
    <g style="fill: #262626" transform="translate(362.573194 107.742187)scale(0.1 -0.1)">
     <defs>
      <path id="ArialMT-41" d="M -9 0 
L 1750 4581 
L 2403 4581 
L 4278 0 
L 3588 0 
L 3053 1388 
L 1138 1388 
L 634 0 
L -9 0 
z
M 1313 1881 
L 2866 1881 
L 2388 3150 
Q 2169 3728 2063 4100 
Q 1975 3659 1816 3225 
L 1313 1881 
z
" transform="scale(0.015625)"/>
      <path id="ArialMT-67" d="M 319 -275 
L 866 -356 
Q 900 -609 1056 -725 
Q 1266 -881 1628 -881 
Q 2019 -881 2231 -725 
Q 2444 -569 2519 -288 
Q 2563 -116 2559 434 
Q 2191 0 1641 0 
Q 956 0 581 494 
Q 206 988 206 1678 
Q 206 2153 378 2554 
Q 550 2956 876 3175 
Q 1203 3394 1644 3394 
Q 2231 3394 2613 2919 
L 2613 3319 
L 3131 3319 
L 3131 450 
Q 3131 -325 2973 -648 
Q 2816 -972 2473 -1159 
Q 2131 -1347 1631 -1347 
Q 1038 -1347 672 -1080 
Q 306 -813 319 -275 
z
M 784 1719 
Q 784 1066 1043 766 
Q 1303 466 1694 466 
Q 2081 466 2343 764 
Q 2606 1063 2606 1700 
Q 2606 2309 2336 2618 
Q 2066 2928 1684 2928 
Q 1309 2928 1046 2623 
Q 784 2319 784 1719 
z
" transform="scale(0.015625)"/>
      <path id="ArialMT-47" d="M 2638 1797 
L 2638 2334 
L 4578 2338 
L 4578 638 
Q 4131 281 3656 101 
Q 3181 -78 2681 -78 
Q 2006 -78 1454 211 
Q 903 500 622 1047 
Q 341 1594 341 2269 
Q 341 2938 620 3517 
Q 900 4097 1425 4378 
Q 1950 4659 2634 4659 
Q 3131 4659 3532 4498 
Q 3934 4338 4162 4050 
Q 4391 3763 4509 3300 
L 3963 3150 
Q 3859 3500 3706 3700 
Q 3553 3900 3268 4020 
Q 2984 4141 2638 4141 
Q 2222 4141 1919 4014 
Q 1616 3888 1430 3681 
Q 1244 3475 1141 3228 
Q 966 2803 966 2306 
Q 966 1694 1177 1281 
Q 1388 869 1791 669 
Q 2194 469 2647 469 
Q 3041 469 3416 620 
Q 3791 772 3984 944 
L 3984 1797 
L 2638 1797 
z
" transform="scale(0.015625)"/>
      <path id="ArialMT-6f" d="M 213 1659 
Q 213 2581 725 3025 
Q 1153 3394 1769 3394 
Q 2453 3394 2887 2945 
Q 3322 2497 3322 1706 
Q 3322 1066 3130 698 
Q 2938 331 2570 128 
Q 2203 -75 1769 -75 
Q 1072 -75 642 372 
Q 213 819 213 1659 
z
M 791 1659 
Q 791 1022 1069 705 
Q 1347 388 1769 388 
Q 2188 388 2466 706 
Q 2744 1025 2744 1678 
Q 2744 2294 2464 2611 
Q 2184 2928 1769 2928 
Q 1347 2928 1069 2612 
Q 791 2297 791 1659 
z
" transform="scale(0.015625)"/>
      <path id="ArialMT-75" d="M 2597 0 
L 2597 488 
Q 2209 -75 1544 -75 
Q 1250 -75 995 37 
Q 741 150 617 320 
Q 494 491 444 738 
Q 409 903 409 1263 
L 409 3319 
L 972 3319 
L 972 1478 
Q 972 1038 1006 884 
Q 1059 663 1231 536 
Q 1403 409 1656 409 
Q 1909 409 2131 539 
Q 2353 669 2445 892 
Q 2538 1116 2538 1541 
L 2538 3319 
L 3100 3319 
L 3100 0 
L 2597 0 
z
" transform="scale(0.015625)"/>
      <path id="ArialMT-70" d="M 422 -1272 
L 422 3319 
L 934 3319 
L 934 2888 
Q 1116 3141 1344 3267 
Q 1572 3394 1897 3394 
Q 2322 3394 2647 3175 
Q 2972 2956 3137 2557 
Q 3303 2159 3303 1684 
Q 3303 1175 3120 767 
Q 2938 359 2589 142 
Q 2241 -75 1856 -75 
Q 1575 -75 1351 44 
Q 1128 163 984 344 
L 984 -1272 
L 422 -1272 
z
M 931 1641 
Q 931 1000 1190 694 
Q 1450 388 1819 388 
Q 2194 388 2461 705 
Q 2728 1022 2728 1688 
Q 2728 2322 2467 2637 
Q 2206 2953 1844 2953 
Q 1484 2953 1207 2617 
Q 931 2281 931 1641 
z
" transform="scale(0.015625)"/>
     </defs>
     <use xlink:href="#ArialMT-41"/>
     <use xlink:href="#ArialMT-67" x="66.699219"/>
     <use xlink:href="#ArialMT-65" x="122.314453"/>
     <use xlink:href="#ArialMT-47" x="177.929688"/>
     <use xlink:href="#ArialMT-72" x="255.712891"/>
     <use xlink:href="#ArialMT-6f" x="289.013672"/>
     <use xlink:href="#ArialMT-75" x="344.628906"/>
     <use xlink:href="#ArialMT-70" x="400.244141"/>
    </g>
   </g>
   <g id="line2d_25">
    <path d="M 344.671632 118.504687 
L 354.671632 118.504687 
L 364.671632 118.504687 
" style="fill: none; stroke: #1f77b4; stroke-width: 1.5; stroke-linecap: round"/>
   </g>
   <g id="text_20">
    <!-- 01-04 Years -->
    <g style="fill: #262626" transform="translate(372.671632 122.004687)scale(0.1 -0.1)">
     <defs>
      <path id="ArialMT-2d" d="M 203 1375 
L 203 1941 
L 1931 1941 
L 1931 1375 
L 203 1375 
z
" transform="scale(0.015625)"/>
      <path id="ArialMT-20" transform="scale(0.015625)"/>
      <path id="ArialMT-73" d="M 197 991 
L 753 1078 
Q 800 744 1014 566 
Q 1228 388 1613 388 
Q 2000 388 2187 545 
Q 2375 703 2375 916 
Q 2375 1106 2209 1216 
Q 2094 1291 1634 1406 
Q 1016 1563 777 1677 
Q 538 1791 414 1992 
Q 291 2194 291 2438 
Q 291 2659 392 2848 
Q 494 3038 669 3163 
Q 800 3259 1026 3326 
Q 1253 3394 1513 3394 
Q 1903 3394 2198 3281 
Q 2494 3169 2634 2976 
Q 2775 2784 2828 2463 
L 2278 2388 
Q 2241 2644 2061 2787 
Q 1881 2931 1553 2931 
Q 1166 2931 1000 2803 
Q 834 2675 834 2503 
Q 834 2394 903 2306 
Q 972 2216 1119 2156 
Q 1203 2125 1616 2013 
Q 2213 1853 2448 1751 
Q 2684 1650 2818 1456 
Q 2953 1263 2953 975 
Q 2953 694 2789 445 
Q 2625 197 2315 61 
Q 2006 -75 1616 -75 
Q 969 -75 630 194 
Q 291 463 197 991 
z
" transform="scale(0.015625)"/>
     </defs>
     <use xlink:href="#ArialMT-30"/>
     <use xlink:href="#ArialMT-31" x="55.615234"/>
     <use xlink:href="#ArialMT-2d" x="111.230469"/>
     <use xlink:href="#ArialMT-30" x="144.53125"/>
     <use xlink:href="#ArialMT-34" x="200.146484"/>
     <use xlink:href="#ArialMT-20" x="255.761719"/>
     <use xlink:href="#ArialMT-59" x="281.794922"/>
     <use xlink:href="#ArialMT-65" x="339.369141"/>
     <use xlink:href="#ArialMT-61" x="394.984375"/>
     <use xlink:href="#ArialMT-72" x="450.599609"/>
     <use xlink:href="#ArialMT-73" x="483.900391"/>
    </g>
   </g>
   <g id="line2d_26">
    <path d="M 344.671632 132.65 
L 354.671632 132.65 
L 364.671632 132.65 
" style="fill: none; stroke: #ff7f0e; stroke-width: 1.5; stroke-linecap: round"/>
   </g>
   <g id="text_21">
    <!-- 05-09 Years -->
    <g style="fill: #262626" transform="translate(372.671632 136.15)scale(0.1 -0.1)">
     <use xlink:href="#ArialMT-30"/>
     <use xlink:href="#ArialMT-35" x="55.615234"/>
     <use xlink:href="#ArialMT-2d" x="111.230469"/>
     <use xlink:href="#ArialMT-30" x="144.53125"/>
     <use xlink:href="#ArialMT-39" x="200.146484"/>
     <use xlink:href="#ArialMT-20" x="255.761719"/>
     <use xlink:href="#ArialMT-59" x="281.794922"/>
     <use xlink:href="#ArialMT-65" x="339.369141"/>
     <use xlink:href="#ArialMT-61" x="394.984375"/>
     <use xlink:href="#ArialMT-72" x="450.599609"/>
     <use xlink:href="#ArialMT-73" x="483.900391"/>
    </g>
   </g>
   <g id="line2d_27">
    <path d="M 344.671632 146.795312 
L 354.671632 146.795312 
L 364.671632 146.795312 
" style="fill: none; stroke: #2ca02c; stroke-width: 1.5; stroke-linecap: round"/>
   </g>
   <g id="text_22">
    <!-- 10-14 Years -->
    <g style="fill: #262626" transform="translate(372.671632 150.295312)scale(0.1 -0.1)">
     <use xlink:href="#ArialMT-31"/>
     <use xlink:href="#ArialMT-30" x="55.615234"/>
     <use xlink:href="#ArialMT-2d" x="111.230469"/>
     <use xlink:href="#ArialMT-31" x="144.53125"/>
     <use xlink:href="#ArialMT-34" x="200.146484"/>
     <use xlink:href="#ArialMT-20" x="255.761719"/>
     <use xlink:href="#ArialMT-59" x="281.794922"/>
     <use xlink:href="#ArialMT-65" x="339.369141"/>
     <use xlink:href="#ArialMT-61" x="394.984375"/>
     <use xlink:href="#ArialMT-72" x="450.599609"/>
     <use xlink:href="#ArialMT-73" x="483.900391"/>
    </g>
   </g>
   <g id="line2d_28">
    <path d="M 344.671632 160.940625 
L 354.671632 160.940625 
L 364.671632 160.940625 
" style="fill: none; stroke: #d62728; stroke-width: 1.5; stroke-linecap: round"/>
   </g>
   <g id="text_23">
    <!-- 15-19 Years -->
    <g style="fill: #262626" transform="translate(372.671632 164.440625)scale(0.1 -0.1)">
     <use xlink:href="#ArialMT-31"/>
     <use xlink:href="#ArialMT-35" x="55.615234"/>
     <use xlink:href="#ArialMT-2d" x="111.230469"/>
     <use xlink:href="#ArialMT-31" x="144.53125"/>
     <use xlink:href="#ArialMT-39" x="200.146484"/>
     <use xlink:href="#ArialMT-20" x="255.761719"/>
     <use xlink:href="#ArialMT-59" x="281.794922"/>
     <use xlink:href="#ArialMT-65" x="339.369141"/>
     <use xlink:href="#ArialMT-61" x="394.984375"/>
     <use xlink:href="#ArialMT-72" x="450.599609"/>
     <use xlink:href="#ArialMT-73" x="483.900391"/>
    </g>
   </g>
  </g>
 </g>
 <defs>
  <clipPath id="pea7ffca000">
   <rect x="49.589063" y="7.2" width="288.894757" height="223.2"/>
  </clipPath>
 </defs>
</svg>
